<?xml version="1.0" standalone="no"?>
<!DOCTYPE svg PUBLIC "-//W3C//DTD SVG 20010904//EN"
 "http://www.w3.org/TR/2001/REC-SVG-20010904/DTD/svg10.dtd">
<svg version="1.0" xmlns="http://www.w3.org/2000/svg"
 width="400.000000pt" height="300.000000pt" viewBox="0 0 400.000000 300.000000"
 preserveAspectRatio="xMidYMid meet">

<g transform="translate(0.000000,300.000000) scale(0.100000,-0.100000)"
fill="#000000" stroke="none">
<path d="M0 2885 l0 -116 30 16 c16 8 33 15 37 15 4 -1 -9 -10 -29 -21 -34
-18 -38 -23 -38 -60 0 -38 2 -41 24 -35 13 3 31 9 40 12 9 3 16 1 16 -6 0 -7
6 -6 16 4 20 20 34 20 34 1 0 -17 35 -21 45 -5 10 17 37 11 56 -12 11 -11 19
-25 19 -30 0 -4 5 -8 10 -8 6 0 10 11 10 23 0 13 6 24 13 24 9 0 12 -9 9 -25
-3 -15 -1 -23 5 -19 6 4 13 20 17 37 5 27 8 30 25 21 16 -9 23 -6 40 17 11 15
21 21 21 15 0 -8 14 -13 38 -13 36 0 41 3 73 50 7 10 12 11 15 3 3 -6 14 -21
25 -34 15 -17 22 -20 31 -11 7 7 40 12 75 12 59 0 85 13 46 23 -10 3 8 5 40 6
51 1 57 -1 57 -19 0 -24 22 -26 44 -5 8 8 19 15 25 15 6 0 11 8 11 18 1 16 1
16 14 0 15 -20 42 -24 48 -7 2 6 26 12 53 14 28 1 103 6 168 10 86 6 117 5
117 -3 0 -14 77 -16 82 -3 2 5 38 12 81 16 70 7 77 6 77 -10 0 -17 1 -17 19
-1 11 10 17 24 14 32 -3 9 2 14 17 14 15 0 20 -5 17 -14 -8 -19 14 -26 79 -26
41 0 54 4 54 15 0 8 9 15 20 15 11 0 20 -7 20 -15 0 -18 76 -22 82 -4 5 15 78
-21 78 -38 0 -22 20 -14 30 12 10 27 26 33 32 13 3 -8 21 -11 51 -9 26 1 47
-2 47 -7 0 -5 29 -12 65 -16 52 -5 69 -3 81 9 19 19 29 19 48 0 8 -8 28 -15
45 -15 17 0 31 -4 31 -9 0 -5 14 -14 30 -20 21 -7 30 -7 30 1 0 5 7 8 15 5 18
-7 30 9 13 17 -7 3 -2 3 12 0 37 -9 41 -17 25 -48 -9 -16 -15 -55 -15 -91 0
-56 -2 -63 -24 -73 -14 -6 -30 -20 -36 -32 -9 -17 -4 -27 36 -70 45 -49 47
-53 49 -115 1 -36 -2 -65 -7 -65 -4 0 -8 -36 -8 -79 0 -44 -5 -83 -10 -86 -6
-3 -10 -42 -10 -85 0 -77 -1 -80 -25 -86 -22 -5 -25 -12 -25 -49 0 -43 0 -43
-50 -60 -58 -19 -69 -35 -65 -89 2 -39 24 -66 52 -66 9 0 13 -18 13 -64 l0
-64 -87 -8 -87 -9 3 -60 c3 -64 17 -84 38 -57 10 14 14 14 21 4 7 -11 25 -12
76 -7 l66 7 0 -25 c0 -22 7 -28 43 -38 55 -16 77 -36 77 -71 0 -18 5 -28 15
-28 11 0 15 11 15 40 0 42 2 44 35 30 17 -7 17 -9 3 -9 -28 -1 -25 -61 2 -61
14 0 20 -7 20 -24 0 -20 -6 -24 -46 -30 -26 -3 -66 -6 -90 -6 -25 0 -49 -6
-58 -16 -15 -14 -16 -13 -16 10 0 14 10 33 24 44 18 13 25 30 27 63 3 30 0 44
-9 43 -6 -1 -37 -2 -67 -2 -52 -2 -54 -3 -43 -21 9 -15 8 -22 -4 -34 -18 -18
-38 -5 -38 25 0 15 -9 18 -61 18 -52 0 -60 -2 -55 -16 3 -9 6 -29 6 -45 0 -22
5 -29 20 -29 17 0 20 7 20 40 0 22 5 40 10 40 6 0 10 -19 10 -41 0 -42 8 -54
54 -80 16 -10 18 -9 13 5 -4 10 -3 15 2 12 12 -8 20 -55 10 -62 -5 -3 -2 -19
7 -35 18 -37 14 -45 -15 -27 -17 10 -21 21 -18 50 4 34 1 38 -31 51 -36 15
-72 12 -72 -5 0 -5 3 -7 8 -5 4 3 16 1 27 -3 22 -9 16 -13 -39 -25 -22 -5 -26
-9 -17 -18 6 -6 11 -22 11 -35 0 -17 -5 -23 -17 -20 -14 3 -18 13 -16 48 1 25
-1 37 -3 28 -4 -13 -16 -18 -44 -18 l-38 0 5 -39 c3 -23 1 -41 -6 -45 -7 -5
-11 8 -11 40 l0 46 -35 -4 c-19 -2 -35 -2 -35 2 -1 3 -3 22 -6 42 -6 37 -5 38
36 44 41 7 41 7 38 48 -3 41 -3 41 -40 38 l-38 -3 0 41 c0 29 4 40 15 40 11 0
15 12 15 45 0 25 -4 45 -9 45 -5 0 -22 -12 -39 -27 -31 -28 -59 -42 -47 -23 8
13 -5 13 -25 0 -12 -7 -12 -12 -2 -22 17 -17 15 -29 -3 -22 -11 4 -15 -1 -16
-17 -1 -14 -5 -8 -9 16 l-7 40 -2 -50 c-1 -45 1 -51 20 -52 29 -3 36 -12 19
-24 -11 -7 -6 -8 15 -3 27 7 29 6 16 -9 -8 -10 -9 -17 -3 -17 6 0 14 5 17 10
8 13 45 13 45 0 0 -5 -9 -10 -21 -10 -11 0 -27 -7 -36 -15 -8 -8 -19 -12 -24
-9 -6 3 -13 -3 -16 -15 -8 -29 -23 -26 -23 5 0 14 -4 23 -10 19 -5 -3 -10 -15
-10 -26 0 -20 -10 -23 -48 -13 -22 6 -23 12 -22 73 1 36 1 163 1 282 -1 242 5
223 -81 235 -36 5 -50 3 -50 -5 0 -7 5 -9 12 -5 8 5 9 2 5 -10 -4 -10 -7 -164
-7 -343 l0 -325 -67 7 c-70 8 -194 8 -201 0 -3 -3 1 -11 7 -19 13 -16 -1 -56
-19 -56 -5 0 -12 -16 -16 -35 -9 -52 -22 -43 -14 10 l7 45 -116 1 c-64 1 -120
0 -126 -2 -5 -1 -91 -4 -190 -6 -186 -3 -319 -12 -297 -20 8 -3 12 -26 12 -67
0 -48 -4 -67 -18 -79 -23 -21 -32 -21 -32 -1 0 8 -4 13 -9 10 -13 -9 -24 24
-22 67 2 31 -1 37 -18 37 -17 0 -21 -6 -21 -31 0 -38 -24 -35 -28 4 -3 21 -9
27 -28 27 -17 0 -24 -6 -24 -19 0 -10 -16 -35 -35 -55 -19 -21 -35 -46 -35
-57 0 -49 -56 14 -63 71 -4 35 -4 35 -5 4 -2 -28 -5 -31 -32 -30 -29 1 -30 3
-30 49 0 27 5 47 11 47 6 0 9 10 8 23 -2 12 0 28 4 35 5 7 4 12 -2 12 -7 0
-11 41 -11 116 0 74 -4 113 -10 109 -6 -4 -10 -53 -10 -116 l0 -109 -97 0
c-72 0 -94 -3 -83 -11 11 -8 12 -12 3 -16 -9 -3 -13 -28 -13 -74 0 -55 3 -71
16 -76 9 -3 19 -1 23 6 6 9 11 8 20 -3 11 -13 7 -16 -23 -22 l-36 -6 0 -434 0
-434 555 0 c306 1 553 5 550 9 -7 12 19 21 35 11 10 -6 9 -9 -1 -13 -8 -3 633
-6 1424 -6 l1437 -1 0 379 c0 243 -4 382 -10 386 -6 3 -10 -1 -10 -9 0 -12
-10 -16 -35 -16 -19 0 -35 5 -35 10 0 6 7 10 15 10 8 0 15 5 15 10 0 6 14 10
30 10 l30 0 0 64 0 65 -35 -6 c-24 -4 -35 -2 -35 7 0 7 -9 11 -23 8 -20 -4
-22 -1 -19 34 3 27 9 38 21 39 12 0 12 2 -4 9 -14 6 -4 9 38 9 l57 1 0 206 0
205 -22 -3 c-15 -2 -24 -11 -26 -24 -3 -23 -38 -39 -48 -22 -3 5 -15 8 -25 5
-10 -3 -20 0 -22 6 -2 7 -10 7 -23 2 -10 -4 -23 -7 -28 -6 -5 1 -6 -5 -3 -14
4 -8 2 -15 -3 -15 -6 0 -10 -4 -10 -10 0 -5 8 -10 18 -10 16 -1 16 -1 -1 -11
-9 -6 -32 -8 -50 -6 -29 4 -30 5 -9 12 29 10 28 27 -2 19 -25 -6 -40 14 -30
41 4 8 1 15 -5 15 -6 0 -11 -10 -11 -22 0 -14 -3 -19 -8 -11 -4 6 -20 16 -35
22 -23 9 -27 16 -27 51 0 38 2 41 23 35 21 -7 21 -7 4 11 -17 18 -19 18 -30 3
-11 -15 -15 -15 -32 -3 -17 13 -21 13 -31 -1 -7 -9 -16 -15 -20 -14 -19 3 -34
-2 -34 -11 0 -5 12 -10 26 -10 20 0 25 -4 20 -16 -3 -9 -6 -22 -6 -29 0 -8 -9
-17 -21 -20 -16 -5 -18 -10 -8 -21 9 -11 8 -14 -5 -14 -9 0 -15 -5 -13 -11 1
-6 -4 -14 -12 -17 -8 -3 -11 0 -7 7 4 6 1 11 -8 11 -10 0 -13 6 -10 15 7 18
-7 20 -24 3 -9 -9 -12 -9 -12 0 0 7 -6 11 -12 9 -8 -1 -12 6 -10 19 2 17 -4
23 -30 28 -29 6 -36 3 -61 -28 -20 -25 -33 -33 -48 -29 -14 4 -19 12 -16 24 3
11 1 19 -4 19 -5 0 -9 -9 -9 -19 0 -20 -25 -35 -41 -25 -5 3 -9 -2 -9 -11 0
-9 -5 -13 -10 -10 -6 4 -8 11 -5 16 4 5 1 9 -4 9 -6 0 -11 -8 -11 -17 0 -15
-2 -16 -10 -3 -6 9 -28 16 -57 18 -111 5 -128 9 -131 26 -3 14 -7 13 -26 -9
l-23 -26 2 31 c3 43 -15 57 -82 66 -68 8 -390 -1 -418 -12 -19 -8 -19 -7 1 14
16 17 40 24 119 33 92 11 290 8 360 -6 l30 -6 -25 15 c-14 8 -32 15 -42 16 -9
0 -18 4 -20 10 -1 5 -28 14 -58 19 -40 6 -46 9 -22 10 17 0 32 6 32 11 0 7 6
7 19 0 30 -15 31 -14 31 45 0 51 2 55 28 61 78 18 102 26 124 44 19 15 21 22
12 37 -17 28 -88 44 -231 50 -73 3 -130 9 -128 14 7 11 -13 21 -26 13 -8 -4
-7 -9 2 -15 9 -6 2 -9 -21 -9 -29 0 -36 4 -37 21 -1 12 3 18 10 16 7 -3 11
-10 9 -16 -1 -6 2 -11 8 -11 5 0 10 12 11 28 0 15 3 21 6 15 6 -15 33 -17 33
-3 0 6 5 10 10 10 6 0 10 -11 10 -25 0 -14 5 -25 10 -25 6 0 8 11 6 25 -3 17
0 25 10 25 8 0 14 -10 14 -23 0 -14 6 -24 15 -24 10 0 12 4 5 12 -5 6 -5 17 0
25 7 11 10 8 15 -13 9 -34 23 -35 20 -2 -2 17 2 25 11 25 9 0 13 -3 11 -7 -3
-5 -1 -17 4 -28 7 -17 8 -17 8 8 1 19 6 27 19 27 14 0 15 -2 2 -10 -13 -8 -12
-10 3 -10 9 0 17 7 17 15 0 11 -13 15 -52 15 -66 0 -94 15 -58 28 23 9 22 10
-15 12 -22 1 -93 3 -157 4 -75 1 -111 4 -101 10 21 11 173 14 233 4 30 -5 38
-5 25 1 -18 9 -18 10 -2 10 10 1 15 6 12 11 -4 6 13 10 44 10 29 0 51 -5 53
-12 3 -8 7 -6 11 5 13 33 -21 49 -95 45 -49 -3 -63 -1 -50 6 9 6 45 11 80 11
l62 0 0 52 c0 48 -2 53 -26 59 -14 4 -51 4 -82 1 l-57 -5 35 15 c23 10 51 13
83 10 49 -6 52 -4 47 38 -3 33 -16 38 -87 37 -46 -1 -63 2 -53 8 8 5 44 10 80
11 l65 1 -53 10 c-40 7 -52 13 -48 24 4 10 -3 14 -22 14 -25 1 -23 3 16 22 40
19 43 19 68 3 33 -22 44 -10 35 40 -6 36 -10 41 -44 49 -25 7 -52 6 -77 -1
-22 -5 -37 -6 -34 -2 11 19 87 31 127 21 35 -9 38 -9 25 4 -8 8 -38 17 -67 21
-34 4 -48 9 -39 14 10 7 10 9 0 9 -10 0 -10 5 -1 21 7 13 7 19 1 15 -6 -3 -13
-2 -17 4 -9 15 45 32 81 26 17 -4 33 -3 37 0 13 13 -28 33 -68 34 -26 0 -35 3
-26 9 10 6 10 10 1 16 -9 6 -9 10 1 17 10 7 6 8 -13 5 -37 -6 -38 25 -3 41 38
17 73 15 92 -7 16 -19 17 -19 35 5 23 28 43 32 34 7 -4 -12 0 -10 10 5 9 12
25 22 36 22 10 0 16 5 13 10 -4 7 -12 7 -25 0 -30 -16 -31 -12 -5 15 24 23 30
41 25 75 -1 11 1 12 10 4 8 -8 8 -19 0 -38 -12 -34 -13 -49 -1 -41 5 3 12 -3
15 -12 3 -10 3 -1 0 19 -2 20 0 39 6 43 5 3 7 0 4 -9 -7 -19 75 -56 126 -56
28 0 45 -8 68 -30 47 -45 74 -38 32 8 l-21 22 21 0 c11 0 20 -6 20 -14 0 -9
21 -15 74 -19 43 -3 95 -14 123 -27 27 -12 65 -20 88 -19 40 2 69 -6 93 -24 7
-5 51 -9 97 -8 73 2 85 0 85 -14 0 -14 8 -16 43 -14 37 3 43 1 39 -13 -2 -9
-14 -19 -26 -21 -19 -3 -20 -4 -2 -12 10 -5 21 -4 25 2 3 6 23 12 44 15 37 4
37 4 37 -33 l0 -37 40 10 40 10 0 63 c0 41 -4 65 -13 68 -9 4 -9 6 1 6 9 1 12
47 12 196 l0 195 -2000 0 -2000 0 0 -115z m220 1 c0 -2 -7 -7 -16 -10 -8 -3
-12 -2 -9 4 6 10 25 14 25 6z m1300 -56 c0 -5 -18 -10 -41 -10 -24 0 -38 4
-34 10 3 6 22 10 41 10 19 0 34 -4 34 -10z m1273 3 c-13 -2 -35 -2 -50 0 -16
2 -5 4 22 4 28 0 40 -2 28 -4z m-96 -9 c-3 -3 -12 -4 -19 -1 -8 3 -5 6 6 6 11
1 17 -2 13 -5z m-2592 -14 c-3 -5 -12 -10 -18 -10 -7 0 -6 4 3 10 19 12 23 12
15 0z m1255 0 c0 -5 -18 -10 -40 -10 -22 0 -40 5 -40 10 0 6 18 10 40 10 22 0
40 -4 40 -10z m1215 0 c3 -5 1 -10 -4 -10 -6 0 -11 5 -11 10 0 6 2 10 4 10 3
0 8 -4 11 -10z m56 -5 c-18 -8 -36 -15 -40 -15 -13 1 45 29 59 29 8 0 0 -6
-19 -14z m256 9 c-3 -3 -12 -4 -19 -1 -8 3 -5 6 6 6 11 1 17 -2 13 -5z m-36
-25 c9 -6 2 -7 -21 -4 -27 4 -30 3 -15 -4 29 -14 0 -13 -65 3 l-55 13 71 0
c39 1 77 -3 85 -8z m-278 -5 c3 -3 -3 -16 -14 -27 -24 -27 -20 -41 14 -45 26
-3 53 -33 41 -45 -7 -7 23 -52 34 -52 4 0 8 -14 10 -31 l3 -32 -43 8 c-23 5
-46 6 -51 3 -13 -8 -87 8 -81 18 3 5 14 9 24 9 16 0 19 7 18 33 -1 29 -4 33
-23 29 -34 -6 -27 25 9 42 l31 16 -30 0 c-29 1 -29 2 -7 12 12 6 22 15 22 20
0 5 -5 6 -12 2 -7 -4 -8 -3 -4 4 4 6 14 8 22 5 14 -5 15 -3 5 15 -10 19 -9 22
7 22 10 0 21 -3 25 -6z m-1983 -29 c0 -8 -7 -15 -15 -15 -8 0 -15 7 -15 15 0
8 7 15 15 15 8 0 15 -7 15 -15z m2550 -55 c0 -5 -4 -10 -10 -10 -5 0 -10 5
-10 10 0 6 5 10 10 10 6 0 10 -4 10 -10z m-495 -175 c17 -7 24 -14 17 -14 -7
-1 -10 -6 -6 -13 5 -8 2 -9 -12 -3 -10 5 -48 12 -84 15 -36 4 -54 8 -40 9 l25
3 -25 8 c-19 6 -10 8 35 9 33 0 74 -6 90 -14z m4 -111 c-14 -17 -13 -114 1
-128 13 -13 13 -53 -1 -62 -7 -4 -9 -29 -6 -65 2 -32 2 -61 -1 -64 -6 -5 -4
-68 2 -128 3 -28 3 -28 -50 -26 -61 3 -79 11 -71 32 3 8 0 20 -6 26 -8 8 -7
11 3 12 8 1 -1 5 -20 9 -32 7 -33 8 -12 15 12 4 22 11 22 15 0 5 8 11 18 14 9
3 0 3 -20 0 -44 -6 -52 11 -10 21 23 5 28 12 30 37 4 56 -7 90 -29 85 -10 -3
-19 -1 -19 4 0 5 8 9 18 9 13 0 14 2 4 9 -10 6 -10 10 3 21 8 7 15 9 16 4 0
-5 4 0 8 11 5 11 5 30 0 42 -5 13 -6 30 -2 40 5 12 2 15 -10 10 -22 -8 -23 25
-3 43 17 13 67 10 79 -5 5 -6 18 3 35 22 15 18 29 28 30 23 2 -6 -2 -17 -9
-26z m-103 -609 c1 -8 -2 -15 -7 -15 -5 0 -9 10 -9 22 0 23 12 17 16 -7z m-36
5 c0 -5 -4 -10 -10 -10 -5 0 -10 5 -10 10 0 6 5 10 10 10 6 0 10 -4 10 -10z
m182 -148 c10 -10 10 -17 0 -32 -7 -12 -8 -20 -2 -20 5 0 10 -10 10 -21 0 -20
-4 -21 -46 -15 -26 3 -80 6 -120 6 -48 0 -74 4 -74 11 0 6 7 8 16 5 14 -5 15
-4 5 8 -6 7 -8 21 -5 31 6 16 2 17 -47 11 l-54 -6 35 16 c67 31 253 35 282 6z
m-445 -194 c-3 -7 -5 -2 -5 12 0 14 2 19 5 13 2 -7 2 -19 0 -25z m-307 -68
c-12 -8 -11 -10 5 -11 11 0 14 -3 8 -6 -7 -2 -13 -16 -13 -30 0 -39 -12 -19
-15 24 -3 45 3 59 19 43 8 -8 7 -13 -4 -20z m957 -142 c3 -41 2 -78 -3 -81
-19 -11 -62 6 -73 29 -19 42 -12 124 10 124 5 0 9 -8 9 -18 0 -10 7 -19 15
-19 10 0 15 10 15 31 0 61 21 9 27 -66z m-87 72 c0 -5 -9 -10 -21 -10 -11 0
-17 5 -14 10 3 6 13 10 21 10 8 0 14 -4 14 -10z m-427 -70 c0 -24 -4 -45 -9
-47 -5 -2 -9 20 -10 47 0 29 4 49 9 47 6 -2 10 -23 10 -47z m302 -11 c3 -4 1
-10 -5 -14 -5 -3 -10 -11 -10 -16 0 -6 5 -7 10 -4 6 3 10 -1 10 -9 0 -10 -9
-16 -24 -16 -20 0 -24 6 -28 35 -2 20 -2 37 0 39 5 6 42 -5 47 -15z m167 -85
c21 -3 41 -10 44 -16 4 -6 -11 -7 -42 -2 -27 5 -138 8 -246 8 -108 0 -195 2
-192 5 15 16 350 20 436 5z m-967 -5 c-4 -5 -12 -8 -18 -6 -7 2 -18 -3 -25
-12 -11 -14 -11 -13 -2 7 6 12 20 22 31 22 12 0 17 -4 14 -11z m1165 -24 c0
-8 -4 -15 -10 -15 -5 0 -10 -7 -10 -15 0 -8 -4 -15 -10 -15 -14 0 -12 28 3 45
16 19 27 19 27 0z m-847 -12 c-7 -2 -19 -2 -25 0 -7 3 -2 5 12 5 14 0 19 -2
13 -5z m1637 -28 c0 -5 -5 -3 -10 5 -5 8 -10 20 -10 25 0 6 5 3 10 -5 5 -8 10
-19 10 -25z m-1464 -12 c-11 -11 -19 6 -11 24 8 17 8 17 12 0 3 -10 2 -21 -1
-24z m-566 18 c0 -15 -31 -22 -48 -10 -14 9 -15 10 -1 6 9 -3 22 -1 30 4 18
11 19 11 19 0z m200 -41 c0 -46 -9 -54 -44 -40 -26 9 -33 31 -20 64 11 28 24
17 24 -19 0 -19 5 -35 10 -35 6 0 10 18 10 41 0 24 4 38 10 34 6 -3 10 -24 10
-45z m210 25 c0 -14 -4 -25 -10 -25 -5 0 -10 11 -10 25 0 14 5 25 10 25 6 0
10 -11 10 -25z m270 5 c0 -5 -2 -10 -4 -10 -3 0 -8 5 -11 10 -3 6 -1 10 4 10
6 0 11 -4 11 -10z m60 0 c0 -5 -5 -10 -11 -10 -5 0 -7 5 -4 10 3 6 8 10 11 10
2 0 4 -4 4 -10z m185 -8 c111 0 162 -4 208 -18 20 -6 23 -24 5 -24 -9 0 -8 -4
2 -11 12 -9 11 -10 -5 -4 -11 3 -95 6 -187 5 -127 0 -167 2 -171 12 -4 10 -7
10 -15 -1 -6 -8 -11 -9 -13 -2 -3 6 -41 11 -102 12 -55 1 -95 5 -90 9 4 5 51
11 103 14 52 3 103 6 113 6 9 1 17 7 17 13 0 9 2 9 8 0 5 -8 46 -11 127 -11z
m-928 -144 c-2 -24 -4 -7 -4 37 0 44 2 63 4 43 2 -21 2 -57 0 -80z m-670 32
c6 0 13 11 15 25 7 55 23 21 26 -52 3 -72 2 -76 -12 -58 -9 11 -16 30 -16 43
0 12 -3 22 -7 22 -10 0 -10 -61 0 -77 6 -10 2 -11 -17 -3 -20 7 -24 6 -19 -5
3 -8 1 -15 -5 -15 -13 0 -23 54 -16 90 7 30 -10 65 -26 55 -5 -3 -11 -1 -15 5
-3 5 3 10 14 10 12 0 21 6 21 12 0 7 10 -2 23 -19 12 -18 27 -33 34 -33z
m-446 -8 c14 -17 2 -49 -21 -55 -17 -4 -20 0 -20 24 0 18 -7 33 -20 41 -18 12
-18 13 -2 29 16 17 18 16 34 -4 10 -12 23 -28 29 -35z m181 42 c2 -9 1 -52 -2
-95 l-5 -78 30 -4 30 -4 -32 -1 c-17 -1 -38 5 -46 13 -8 8 -17 11 -20 8 -3 -3
-9 8 -13 23 -4 16 -14 39 -21 51 -8 12 -12 27 -8 32 3 6 -3 19 -15 31 l-20 20
29 0 c16 0 31 -6 35 -15 9 -25 36 -18 36 10 0 28 17 34 22 9z m146 -66 l-3
-83 -42 -3 -43 -3 0 58 c0 61 -6 76 -30 86 -8 3 2 6 23 6 27 1 37 -3 37 -14 0
-8 9 -15 20 -15 15 0 20 7 20 25 0 14 5 25 10 25 7 0 10 -30 8 -82z m260 45
c7 -22 5 -32 -10 -47 -18 -19 -18 -19 -18 5 0 28 -17 54 -40 62 -8 3 1 6 22 6
31 1 37 -3 46 -26z m1621 -13 c6 0 15 8 20 18 9 14 12 15 20 2 5 -8 8 -17 6
-20 -2 -3 17 -6 42 -7 71 -4 76 -19 8 -24 -22 -2 -44 -8 -48 -14 -6 -7 -10 -5
-14 4 -3 7 -8 9 -12 5 -3 -5 -116 -7 -251 -5 -153 3 -223 7 -185 11 49 5 36 7
-70 10 -109 2 -121 4 -75 10 30 5 94 8 143 9 76 1 87 3 87 19 0 11 3 13 8 5 5
-8 47 -12 132 -13 160 -1 160 -1 159 8 -4 21 3 24 11 5 5 -13 14 -23 19 -23z
m421 23 c0 -16 -10 -21 -58 -29 -40 -6 -42 -5 -42 20 0 25 2 26 50 23 30 -1
50 -7 50 -14z m390 -19 c0 -50 17 -62 88 -65 34 -1 59 -6 56 -11 -4 -5 -31 -8
-63 -7 -51 3 -56 1 -59 -19 -3 -20 1 -22 42 -22 47 0 55 -7 34 -28 -17 -17
-101 -16 -95 1 7 19 -13 49 -29 43 -9 -3 -13 1 -12 12 3 39 -3 72 -13 72 -5 0
-7 -5 -4 -10 3 -6 -2 -13 -12 -17 -10 -4 -33 -22 -51 -39 l-34 -33 28 -3 c27
-3 27 -4 10 -20 -10 -10 -32 -18 -52 -18 -27 0 -34 4 -34 20 0 11 5 20 11 20
22 0 4 44 -21 51 l-25 7 28 1 c15 1 27 6 27 12 0 5 4 8 9 4 5 -3 11 9 13 27 3
30 6 33 43 37 l40 5 -40 6 c-32 6 -25 7 38 9 l77 1 0 -36z m-3520 0 c0 -14 -5
-24 -11 -22 -6 2 -9 8 -7 13 2 4 -10 14 -27 21 l-30 13 38 1 c33 0 37 -3 37
-26z m543 -4 c-8 -29 -21 -25 -15 5 2 14 8 23 12 20 5 -3 6 -14 3 -25z m2787
-20 c0 -5 -4 -10 -10 -10 -5 0 -10 5 -10 10 0 6 5 10 10 10 6 0 10 -4 10 -10z
m-195 -21 c-7 -10 -35 -1 -35 11 0 5 9 6 20 3 11 -3 17 -9 15 -14z m-1385 -14
c0 -10 -9 -15 -27 -14 -24 2 -25 2 -5 6 12 2 22 9 22 14 0 5 2 9 5 9 3 0 5 -7
5 -15z m1270 -14 c0 -16 -7 -34 -15 -41 -8 -7 -15 -18 -15 -25 0 -7 -17 -17
-39 -22 -35 -9 -38 -9 -34 8 5 16 -1 19 -37 19 -26 0 -48 -6 -58 -17 -18 -17
-18 -17 29 1 9 4 22 -1 32 -11 15 -18 15 -19 -11 -21 -22 -1 -24 0 -12 9 11 8
8 9 -15 4 -44 -11 -588 -6 -621 6 -24 7 -22 8 16 4 32 -4 41 -2 30 5 -13 8
-12 10 4 10 11 0 17 2 15 5 -3 2 -59 7 -124 11 -134 7 -162 14 -64 15 35 0 75
2 89 3 14 1 40 3 58 4 25 2 32 6 32 23 0 12 4 17 11 13 6 -3 9 -14 6 -23 -3
-14 2 -16 30 -13 24 3 33 9 33 23 0 10 7 19 15 19 8 0 15 -9 15 -20 0 -18 7
-19 125 -18 113 2 125 4 125 20 0 23 30 24 31 1 1 -17 2 -17 6 0 7 26 83 25
83 -2 0 -14 9 -20 35 -23 33 -4 35 -2 35 24 0 18 5 28 15 28 8 0 15 -7 15 -15
0 -8 5 -15 10 -15 6 0 10 5 10 10 0 6 27 10 60 10 33 0 60 4 60 10 0 6 5 10
10 10 6 0 10 -13 10 -29z m180 19 c0 -5 14 -10 30 -10 17 0 30 -4 30 -8 0 -4
-12 -8 -27 -7 -22 0 -29 -5 -31 -22 -2 -13 0 -23 5 -23 4 0 9 -12 10 -26 1
-18 -2 -23 -9 -16 -6 6 -26 8 -44 5 -29 -5 -34 -3 -34 15 0 14 7 22 23 24 17
2 22 10 23 33 1 17 2 33 3 38 2 11 21 9 21 -3z m-2756 -9 c3 -5 -1 -11 -9 -15
-9 -3 -15 0 -15 9 0 16 16 20 24 6z m1708 0 c4 -1 5 -8 2 -16 -9 -22 -54 -19
-54 3 0 18 3 19 52 13z m-1086 -59 c-11 -10 -14 3 -8 33 l7 30 3 -28 c2 -16 1
-31 -2 -35z m1162 51 c-10 -2 -28 -2 -40 0 -13 2 -5 4 17 4 22 1 32 -1 23 -4z
m345 0 c-7 -2 -19 -2 -25 0 -7 3 -2 5 12 5 14 0 19 -2 13 -5z m222 -3 c3 -5 2
-10 -4 -10 -5 0 -13 5 -16 10 -3 6 -2 10 4 10 5 0 13 -4 16 -10z m491 -47
c-11 -11 -17 4 -9 23 7 18 8 18 11 1 2 -10 1 -21 -2 -24z m-2909 -19 c-3 -3
-12 -4 -19 -1 -8 3 -5 6 6 6 11 1 17 -2 13 -5z m433 -4 c0 -5 -12 -10 -27 -9
l-28 1 25 8 c14 4 26 8 28 9 1 1 2 -3 2 -9z m-665 -18 c-3 -3 -11 0 -18 7 -9
10 -8 11 6 5 10 -3 15 -9 12 -12z m2975 3 c0 -8 7 -15 15 -15 8 0 15 -4 15
-10 0 -5 -15 -2 -34 8 -21 11 -29 20 -22 24 17 12 26 9 26 -7z m203 -28 c-2
-4 -15 1 -28 10 -15 12 -19 20 -12 25 12 8 47 -22 40 -35z m-2383 17 c0 -2 -7
-4 -15 -4 -8 0 -15 4 -15 10 0 5 7 7 15 4 8 -4 15 -8 15 -10z m154 1 c-4 -8
-16 -15 -28 -15 -20 0 -20 1 4 14 14 8 26 14 27 15 1 1 0 -6 -3 -14z m103 9
c-3 -3 -12 -4 -19 -1 -8 3 -5 6 6 6 11 1 17 -2 13 -5z m111 -1 c-16 -2 -28 -9
-28 -14 0 -5 -12 -9 -26 -9 -14 0 -23 4 -19 9 3 5 -3 12 -12 14 -10 3 11 5 47
4 36 0 53 -2 38 -4z m56 -8 c4 -11 -1 -15 -17 -14 -12 0 -16 3 -9 6 6 2 10 9
6 14 -3 5 -1 9 4 9 6 0 12 -7 16 -15z m81 6 c-19 -8 -18 -9 5 -13 25 -5 25 -5
-2 -7 -16 0 -28 3 -28 8 0 5 -8 12 -17 14 -10 3 0 5 22 5 30 0 35 -1 20 -7z
m198 2 c-13 -2 -35 -2 -50 0 -16 2 -5 4 22 4 28 0 40 -2 28 -4z m94 1 c-3 -3
-12 -4 -19 -1 -8 3 -5 6 6 6 11 1 17 -2 13 -5z m170 0 c-3 -3 -12 -4 -19 -1
-8 3 -5 6 6 6 11 1 17 -2 13 -5z m-1879 -16 c-5 -23 -28 -40 -46 -33 -15 7
-15 8 3 15 11 5 16 9 10 9 -5 1 -3 6 5 11 20 13 30 12 28 -2z m22 -4 c0 -8 -5
-12 -10 -9 -6 4 -8 11 -5 16 9 14 15 11 15 -7z m25 6 c3 -5 1 -10 -4 -10 -6 0
-11 5 -11 10 0 6 2 10 4 10 3 0 8 -4 11 -10z m183 -7 c33 -3 58 0 68 7 17 15
26 10 15 -8 -4 -6 -20 -13 -35 -14 -16 -2 -31 -8 -33 -15 -6 -16 -53 -17 -53
-2 0 7 -15 9 -42 5 -24 -3 -35 -3 -25 0 13 4 17 12 14 26 -5 17 -2 19 16 13
12 -4 46 -10 75 -12z m1308 4 c4 -4 -7 -7 -25 -7 -18 0 -30 4 -27 8 6 10 42 9
52 -1z m-563 -4 c-7 -2 -19 -2 -25 0 -7 3 -2 5 12 5 14 0 19 -2 13 -5z m180 0
c-7 -2 -21 -2 -30 0 -10 3 -4 5 12 5 17 0 24 -2 18 -5z m470 0 c-7 -2 -21 -2
-30 0 -10 3 -4 5 12 5 17 0 24 -2 18 -5z m90 0 c-7 -2 -21 -2 -30 0 -10 3 -4
5 12 5 17 0 24 -2 18 -5z m100 0 c-7 -2 -21 -2 -30 0 -10 3 -4 5 12 5 17 0 24
-2 18 -5z m95 0 c-10 -2 -26 -2 -35 0 -10 3 -2 5 17 5 19 0 27 -2 18 -5z m90
0 c-10 -2 -26 -2 -35 0 -10 3 -2 5 17 5 19 0 27 -2 18 -5z m85 0 c-13 -2 -33
-2 -45 0 -13 2 -3 4 22 4 25 0 35 -2 23 -4z m114 1 c-3 -3 -12 -4 -19 -1 -8 3
-5 6 6 6 11 1 17 -2 13 -5z m1193 -4 c0 -5 -5 -10 -11 -10 -5 0 -7 5 -4 10 3
6 8 10 11 10 2 0 4 -4 4 -10z m130 0 c0 -5 -9 -10 -21 -10 -11 0 -17 5 -14 10
3 6 13 10 21 10 8 0 14 -4 14 -10z m60 0 c0 -5 -5 -10 -11 -10 -5 0 -7 5 -4
10 3 6 8 10 11 10 2 0 4 -4 4 -10z m-3670 -16 c0 -2 -11 -4 -25 -4 -14 0 -25
4 -25 9 0 4 11 6 25 3 14 -2 25 -6 25 -8z m690 4 c0 -5 9 -8 19 -8 11 0 23 -5
26 -10 11 -18 -26 -23 -89 -12 -38 7 -78 8 -106 2 -54 -10 -74 2 -34 21 30 15
184 20 184 7z m-535 -8 c4 -6 -6 -10 -22 -10 -22 0 -25 2 -13 10 19 12 27 12
35 0z m1779 -5 c3 -8 1 -15 -4 -15 -6 0 -10 7 -10 15 0 8 2 15 4 15 2 0 6 -7
10 -15z m-1504 -5 c0 -5 -11 -10 -25 -10 -14 0 -25 5 -25 10 0 6 11 10 25 10
14 0 25 -4 25 -10z m410 0 c0 -5 -9 -10 -20 -10 -11 0 -20 5 -20 10 0 6 9 10
20 10 11 0 20 -4 20 -10z m1003 3 c-7 -2 -21 -2 -30 0 -10 3 -4 5 12 5 17 0
24 -2 18 -5z m67 -3 c0 -13 -20 -13 -40 0 -12 8 -9 10 13 10 15 0 27 -4 27
-10z m110 -16 c0 -2 -9 0 -20 6 -11 6 -20 13 -20 16 0 2 9 0 20 -6 11 -6 20
-13 20 -16z m1659 10 c9 -9 -5 -11 -36 -7 -18 3 -31 9 -28 13 5 8 55 4 64 -6z
m-1624 -4 c3 -5 1 -10 -4 -10 -6 0 -11 5 -11 10 0 6 2 10 4 10 3 0 8 -4 11
-10z m1120 -24 c33 3 64 6 70 7 5 1 9 -9 7 -21 -1 -17 4 -25 18 -29 11 -3 20
-12 20 -20 0 -12 -3 -12 -22 1 -12 9 -29 16 -38 16 -12 -1 -12 -3 3 -11 9 -5
17 -14 17 -19 0 -16 -37 -11 -44 5 -3 9 -18 15 -37 15 -25 0 -29 -3 -20 -13
26 -32 -38 -38 -70 -6 -15 15 -29 20 -49 16 -15 -3 -32 -1 -39 6 -8 8 -11 8
-11 -1 0 -7 5 -12 10 -12 6 0 10 -7 10 -15 0 -8 -14 -17 -37 -21 -29 -5 -39
-3 -50 11 -20 28 -16 35 17 35 25 0 30 4 30 25 0 34 46 36 53 3 l4 -23 8 23
c5 16 15 22 36 22 16 0 29 5 29 11 0 8 4 8 13 1 8 -7 36 -9 72 -6z m-1237 -3
c-9 -2 -19 -12 -21 -21 -3 -12 -5 -10 -6 6 -1 17 4 22 22 21 15 -1 17 -3 5 -6z
m79 -8 c0 -8 -4 -15 -9 -15 -4 0 -8 7 -8 15 0 8 4 15 8 15 5 0 9 -7 9 -15z
m21 -8 c-2 -17 -9 -23 -28 -24 -22 -2 -22 -1 -5 6 11 4 21 13 21 20 4 31 14
29 12 -2z m39 -15 c3 -21 1 -24 -7 -12 -11 17 -14 57 -3 46 4 -4 9 -19 10 -34z
m47 21 c-5 -5 -12 -12 -16 -18 -4 -6 -8 -2 -8 8 0 9 7 17 17 17 9 0 12 -3 7
-7z m36 -23 c0 -16 4 -30 9 -30 4 0 6 12 3 27 -4 21 -2 25 12 20 9 -4 16 -2
16 3 0 6 19 10 43 10 38 0 43 -3 43 -23 0 -15 -6 -24 -18 -24 -12 -1 -18 5
-18 18 0 10 -4 19 -9 19 -6 0 -8 -9 -6 -20 2 -11 0 -20 -6 -20 -5 0 -9 6 -10
13 0 9 -2 9 -6 -1 -4 -10 -8 -10 -20 -1 -12 11 -13 9 -9 -12 9 -34 -4 -47 -41
-42 -36 6 -41 14 -18 33 8 7 15 23 15 36 0 13 5 24 10 24 6 0 10 -13 10 -30z
m153 13 c-4 -11 -3 -14 5 -9 8 5 12 0 12 -13 0 -12 5 -21 10 -21 6 0 10 10 10
23 0 17 2 19 9 7 6 -8 7 -18 5 -22 -3 -4 2 -8 11 -8 11 0 15 -7 13 -22 -3 -23
-5 -24 -90 -19 -21 1 -24 24 -4 40 7 6 11 22 8 36 -2 14 0 25 7 25 6 0 8 -7 4
-17z m104 11 c-3 -3 -12 -4 -19 -1 -8 3 -5 6 6 6 11 1 17 -2 13 -5z m45 -24
c-4 -29 -31 -43 -33 -17 0 10 -2 10 -6 0 -7 -18 -33 -16 -33 2 0 8 9 15 20 15
11 0 20 7 20 15 0 8 8 15 18 15 15 0 18 -6 14 -30z m-646 -15 c-11 -8 -22 -12
-25 -9 -6 6 19 24 34 24 6 -1 1 -7 -9 -15z m88 -10 c-6 -16 -64 -22 -64 -7 0
15 13 22 41 22 21 0 27 -4 23 -15z m136 -4 c0 -17 -26 -29 -52 -24 -28 5 -34
13 -21 26 10 10 73 8 73 -2z m781 -22 c9 -18 5 -19 -44 -19 -46 0 -56 3 -60
19 -4 17 1 20 32 23 46 4 59 0 72 -23z m-218 2 c7 -27 0 -31 -55 -31 -41 0
-48 3 -48 19 0 34 94 44 103 12z m54 -17 c-3 -3 -12 -4 -19 -1 -8 3 -5 6 6 6
11 1 17 -2 13 -5z m-2307 -424 c0 -13 -70 -13 -90 0 -11 7 0 10 38 10 28 0 52
-4 52 -10z m-110 -10 c0 -5 -5 -10 -11 -10 -5 0 -7 5 -4 10 3 6 8 10 11 10 2
0 4 -4 4 -10z m-45 -10 c-3 -5 -12 -10 -18 -10 -7 0 -6 4 3 10 19 12 23 12 15
0z m205 1 c-18 -10 -125 -23 -116 -14 6 7 74 20 111 21 16 1 17 0 5 -7z m-420
-21 c0 -5 -12 -10 -27 -10 -22 0 -25 2 -13 10 20 13 40 13 40 0z m58 3 c-10
-2 -26 -2 -35 0 -10 3 -2 5 17 5 19 0 27 -2 18 -5z m185 -10 c-7 -2 -19 -2
-25 0 -7 3 -2 5 12 5 14 0 19 -2 13 -5z m407 -43 c0 -5 -9 -10 -21 -10 -11 0
-17 5 -14 10 3 6 13 10 21 10 8 0 14 -4 14 -10z m100 -20 c0 -5 -4 -10 -9 -10
-6 0 -13 5 -16 10 -3 6 1 10 9 10 9 0 16 -4 16 -10z"/>
<path d="M2590 2640 c0 -5 5 -10 10 -10 6 0 10 5 10 10 0 6 -4 10 -10 10 -5 0
-10 -4 -10 -10z"/>
<path d="M2620 2590 c-9 -6 -10 -10 -3 -10 6 0 15 5 18 10 8 12 4 12 -15 0z"/>
<path d="M2583 2523 c9 -2 23 -2 30 0 6 3 -1 5 -18 5 -16 0 -22 -2 -12 -5z"/>
<path d="M2860 1260 c0 -5 7 -10 15 -10 8 0 15 5 15 10 0 6 -7 10 -15 10 -8 0
-15 -4 -15 -10z"/>
<path d="M838 920 c2 -16 6 -30 8 -30 2 0 4 14 4 30 0 17 -4 30 -8 30 -5 0 -7
-13 -4 -30z"/>
<path d="M976 943 c5 -5 12 -12 16 -18 4 -6 8 -2 8 8 0 9 -7 17 -17 17 -9 0
-12 -3 -7 -7z"/>
<path d="M2568 943 c7 -3 16 -2 19 1 4 3 -2 6 -13 5 -11 0 -14 -3 -6 -6z"/>
<path d="M3082 889 c2 -7 -10 -16 -27 -19 -23 -4 -12 -8 44 -13 74 -7 96 0 88
28 -5 15 -108 19 -105 4z"/>
<path d="M2498 813 c7 -3 16 -2 19 1 4 3 -2 6 -13 5 -11 0 -14 -3 -6 -6z"/>
<path d="M3200 695 c0 -8 2 -15 4 -15 2 0 6 7 10 15 3 8 1 15 -4 15 -6 0 -10
-7 -10 -15z"/>
<path d="M3236 695 c-3 -8 -1 -15 4 -15 6 0 10 7 10 15 0 8 -2 15 -4 15 -2 0
-6 -7 -10 -15z"/>
<path d="M1120 2780 c0 -5 18 -10 40 -10 22 0 40 5 40 10 0 6 -18 10 -40 10
-22 0 -40 -4 -40 -10z"/>
<path d="M729 2744 c-10 -13 -10 -17 2 -25 20 -12 36 -11 41 4 13 34 -19 50
-43 21z"/>
<path d="M2451 2722 c-7 -13 -10 -28 -7 -35 2 -7 5 -5 5 5 1 9 6 18 13 20 6 2
9 11 6 18 -3 11 -8 9 -17 -8z"/>
<path d="M2410 2696 c0 -8 4 -17 9 -20 5 -4 7 3 4 14 -6 23 -13 26 -13 6z"/>
<path d="M16 2661 c-30 -33 -12 -44 19 -11 20 21 24 30 13 30 -8 0 -23 -9 -32
-19z"/>
<path d="M3020 2671 c0 -6 5 -13 10 -16 6 -3 10 1 10 9 0 9 -4 16 -10 16 -5 0
-10 -4 -10 -9z"/>
<path d="M3708 2513 c6 -2 18 -2 25 0 6 3 1 5 -13 5 -14 0 -19 -2 -12 -5z"/>
<path d="M1123 2083 c-13 -2 -23 -11 -23 -19 0 -16 -16 -19 -25 -5 -6 11 -65
-6 -65 -18 0 -3 -17 -7 -37 -7 -21 0 -46 -3 -56 -7 -16 -6 -17 -9 -2 -36 9
-19 16 -61 17 -113 1 -69 2 -73 5 -26 4 52 7 59 28 64 20 5 25 12 25 40 0 24
5 34 15 34 10 0 15 -10 15 -31 0 -41 24 -33 28 8 2 24 10 34 32 41 34 12 40 8
40 -29 0 -39 28 -27 32 14 5 48 28 47 28 -2 0 -23 4 -41 9 -41 5 0 9 -15 9
-32 0 -56 2 -68 12 -68 6 0 10 42 10 106 0 131 -10 144 -97 127z"/>
<path d="M1493 1996 c4 -10 7 -44 7 -77 0 -34 4 -59 10 -59 17 0 8 142 -9 148
-10 3 -12 0 -8 -12z"/>
<path d="M753 1983 c-13 -2 -23 -7 -23 -11 0 -4 -17 -8 -37 -9 -20 -1 -39 -5
-42 -10 -3 -4 -22 -9 -41 -11 -43 -3 -54 -13 -37 -35 11 -16 19 -16 127 10
117 27 137 37 118 60 -10 13 -23 14 -65 6z"/>
<path d="M1690 1925 c0 -8 5 -15 10 -15 6 0 10 7 10 15 0 8 -4 15 -10 15 -5 0
-10 -7 -10 -15z"/>
<path d="M783 1918 c-44 -12 -45 -44 -3 -53 27 -6 30 -10 30 -46 0 -21 5 -39
10 -39 10 0 11 139 1 144 -4 2 -21 -1 -38 -6z"/>
<path d="M1720 1915 c0 -8 5 -15 10 -15 6 0 10 7 10 15 0 8 -4 15 -10 15 -5 0
-10 -7 -10 -15z"/>
<path d="M455 1900 c3 -6 -1 -7 -9 -4 -9 3 -24 3 -33 -1 -10 -5 -29 -10 -43
-12 -14 -2 -27 -8 -28 -14 -2 -5 -8 -7 -13 -3 -5 3 -18 2 -29 -1 -21 -7 -27
-39 -10 -50 6 -3 10 -15 10 -26 0 -12 7 -19 20 -19 16 0 20 7 20 30 0 17 5 30
10 30 6 0 10 -11 10 -25 0 -14 5 -25 10 -25 6 0 10 14 10 30 0 17 4 30 9 30 5
0 16 3 25 6 13 5 16 -1 16 -25 0 -17 5 -31 10 -31 6 0 10 16 10 35 0 63 17 36
27 -42 l10 -78 2 91 c1 58 -3 94 -11 102 -14 14 -32 16 -23 2z"/>
<path d="M623 1880 c-31 -13 -30 -40 2 -40 20 0 25 5 25 25 0 14 -1 25 -2 24
-2 0 -13 -4 -25 -9z"/>
<path d="M667 1870 c3 -11 9 -20 14 -20 5 0 9 9 9 20 0 11 -6 20 -14 20 -9 0
-12 -7 -9 -20z"/>
<path d="M1890 1820 c0 -33 4 -60 10 -60 6 0 10 27 10 60 0 33 -4 60 -10 60
-6 0 -10 -27 -10 -60z"/>
<path d="M1620 1840 c0 -5 7 -10 16 -10 8 0 12 5 9 10 -3 6 -10 10 -16 10 -5
0 -9 -4 -9 -10z"/>
<path d="M2847 1834 c4 -11 8 -13 11 -6 4 13 23 17 21 5 -4 -26 3 -43 19 -42
10 0 12 3 5 6 -7 2 -12 14 -12 26 1 18 2 19 6 4 4 -14 8 -16 19 -6 8 7 14 7
14 1 0 -5 11 -13 24 -16 13 -3 32 -9 43 -13 11 -4 7 4 -12 20 -18 17 -32 22
-36 16 -4 -8 -8 -7 -11 1 -2 7 -25 14 -51 17 -43 5 -47 4 -40 -13z"/>
<path d="M678 1807 c-27 -6 -48 -14 -48 -18 0 -9 81 10 95 22 5 5 7 8 5 8 -3
-1 -26 -6 -52 -12z"/>
<path d="M1036 1808 c4 -7 13 -20 20 -28 8 -9 14 -50 17 -100 3 -79 3 -78 5
28 l2 112 -26 0 c-17 0 -23 -4 -18 -12z"/>
<path d="M2810 1810 c0 -5 5 -10 11 -10 5 0 7 5 4 10 -3 6 -8 10 -11 10 -2 0
-4 -4 -4 -10z"/>
<path d="M1198 1695 c2 -47 8 -85 13 -85 5 0 9 38 9 85 0 61 -3 85 -12 85 -10
0 -12 -22 -10 -85z"/>
<path d="M680 1730 c11 -11 22 -20 25 -20 3 0 5 9 5 20 0 15 -7 20 -25 20
l-25 0 20 -20z"/>
<path d="M1820 1575 c0 -154 0 -156 20 -145 12 6 26 22 32 36 12 25 24 31 30
15 2 -5 12 -11 23 -13 24 -4 24 -3 25 153 l1 76 -60 16 c-34 9 -63 17 -66 17
-3 0 -5 -70 -5 -155z m25 115 c-3 -4 6 -11 20 -14 14 -4 24 -12 22 -18 -1 -7
8 -14 21 -16 12 -2 22 -8 22 -13 0 -6 -16 -7 -37 -4 l-38 6 30 -14 c36 -16 20
-30 -24 -21 -30 6 -44 33 -18 35 10 0 10 2 0 6 -7 2 -13 20 -13 39 0 21 4 33
10 29 6 -4 8 -10 5 -15z m24 -129 c7 -13 6 -24 -3 -36 -13 -18 -14 -18 -25 3
-6 11 -11 28 -11 36 0 22 27 20 39 -3z m62 -24 c-10 -9 -11 -8 -5 6 3 10 9 15
12 12 3 -3 0 -11 -7 -18z m-86 -87 c3 -5 1 -10 -4 -10 -6 0 -11 5 -11 10 0 6
2 10 4 10 3 0 8 -4 11 -10z"/>
<path d="M805 1700 c3 -5 10 -10 16 -10 5 0 9 5 9 10 0 6 -7 10 -16 10 -8 0
-12 -4 -9 -10z"/>
<path d="M357 1684 c-6 -6 16 -34 27 -34 3 0 6 9 6 20 0 19 -20 27 -33 14z"/>
<path d="M823 1620 c0 -36 2 -50 4 -32 2 17 2 47 0 65 -2 17 -4 3 -4 -33z"/>
<path d="M2205 1570 c-18 -8 -17 -9 8 -9 15 -1 27 4 27 9 0 12 -8 12 -35 0z"/>
<path d="M1199 1546 c-2 -2 -3 -43 -1 -91 3 -60 7 -85 15 -82 7 2 11 23 10 53
0 27 -2 66 -2 87 -1 33 -9 45 -22 33z"/>
<path d="M1978 1533 c7 -3 16 -2 19 1 4 3 -2 6 -13 5 -11 0 -14 -3 -6 -6z"/>
<path d="M1064 1450 c0 -43 3 -77 8 -74 10 7 11 154 0 154 -4 0 -8 -36 -8 -80z"/>
<path d="M807 1482 c7 -4 14 -38 16 -77 l3 -70 2 78 c2 67 0 77 -15 77 -12 0
-14 -3 -6 -8z"/>
<path d="M2108 1473 c-29 -5 -34 -13 -18 -29 5 -5 11 -21 13 -34 3 -18 11 -25
30 -27 26 -2 27 0 27 48 0 33 -4 49 -12 48 -7 -1 -25 -4 -40 -6z"/>
<path d="M2012 1463 c-13 -3 -21 -10 -18 -16 3 -7 9 -20 12 -29 4 -10 11 -18
18 -18 6 0 4 -4 -4 -10 -20 -13 -7 -22 22 -15 21 5 25 13 27 51 2 47 1 48 -57
37z"/>
<path d="M3301 1454 c0 -11 3 -14 6 -6 3 7 2 16 -1 19 -3 4 -6 -2 -5 -13z"/>
<path d="M930 1452 c0 -5 9 -12 21 -15 13 -3 19 -1 16 6 -5 15 -37 22 -37 9z"/>
<path d="M1885 1450 c-3 -5 -1 -10 4 -10 6 0 11 5 11 10 0 6 -2 10 -4 10 -3 0
-8 -4 -11 -10z"/>
<path d="M3265 1450 c3 -5 10 -10 16 -10 5 0 9 5 9 10 0 6 -7 10 -16 10 -8 0
-12 -4 -9 -10z"/>
<path d="M483 1370 c0 -41 2 -58 4 -37 2 20 2 54 0 75 -2 20 -4 3 -4 -38z"/>
<path d="M933 1390 c0 -25 2 -35 4 -22 2 12 2 32 0 45 -2 12 -4 2 -4 -23z"/>
<path d="M3700 1420 c0 -5 5 -10 10 -10 6 0 10 5 10 10 0 6 -4 10 -10 10 -5 0
-10 -4 -10 -10z"/>
<path d="M3095 1380 c-3 -5 -1 -10 4 -10 6 0 11 5 11 10 0 6 -2 10 -4 10 -3 0
-8 -4 -11 -10z"/>
<path d="M2110 1360 c0 -5 5 -10 10 -10 6 0 10 5 10 10 0 6 -4 10 -10 10 -5 0
-10 -4 -10 -10z"/>
<path d="M2121 1324 c0 -11 3 -14 6 -6 3 7 2 16 -1 19 -3 4 -6 -2 -5 -13z"/>
<path d="M1198 1255 c3 -39 8 -55 18 -55 10 0 14 14 14 55 0 46 -3 55 -17 55
-15 0 -18 -8 -15 -55z"/>
<path d="M1072 1270 c0 -19 2 -27 5 -17 2 9 2 25 0 35 -3 9 -5 1 -5 -18z"/>
<path d="M2044 1284 c3 -9 6 -29 6 -45 0 -26 3 -29 25 -23 14 3 31 2 38 -4 9
-8 12 1 12 39 l0 49 -43 0 c-36 0 -43 -3 -38 -16z"/>
<path d="M800 1270 c0 -5 4 -10 9 -10 6 0 12 -19 14 -42 3 -41 4 -41 5 10 2
40 -1 52 -13 52 -8 0 -15 -4 -15 -10z"/>
<path d="M700 1260 c0 -5 5 -10 11 -10 5 0 7 5 4 10 -3 6 -8 10 -11 10 -2 0
-4 -4 -4 -10z"/>
<path d="M483 1205 c0 -27 2 -38 4 -22 2 15 2 37 0 50 -2 12 -4 0 -4 -28z"/>
<path d="M1770 1228 c0 -9 5 -20 10 -23 13 -8 13 5 0 25 -8 13 -10 13 -10 -2z"/>
<path d="M1033 1113 c-48 -2 -83 -8 -83 -14 0 -8 131 -8 233 0 5 1 5 6 2 11
-3 6 -21 9 -38 8 -18 -1 -69 -4 -114 -5z"/>
<path d="M1230 1110 c0 -11 40 -11 85 0 25 6 20 8 -27 9 -33 0 -58 -3 -58 -9z"/>
<path d="M648 1093 c-27 -2 -48 -8 -48 -13 0 -11 182 -1 194 11 10 9 -48 9
-146 2z"/>
<path d="M834 1093 c7 -7 87 -5 95 3 2 2 -20 4 -49 4 -29 0 -50 -3 -46 -7z"/>
<path d="M261 1014 c0 -11 3 -14 6 -6 3 7 2 16 -1 19 -3 4 -6 -2 -5 -13z"/>
<path d="M540 956 c0 -25 5 -35 19 -39 26 -6 31 0 31 40 0 29 -3 33 -25 33
-22 0 -25 -4 -25 -34z"/>
<path d="M332 925 c0 -16 2 -22 5 -12 2 9 2 23 0 30 -3 6 -5 -1 -5 -18z"/>
</g>
</svg>
