<?xml version="1.0" standalone="no"?>
<!DOCTYPE svg PUBLIC "-//W3C//DTD SVG 20010904//EN"
 "http://www.w3.org/TR/2001/REC-SVG-20010904/DTD/svg10.dtd">
<svg version="1.0" xmlns="http://www.w3.org/2000/svg"
 width="288.000000pt" height="175.000000pt" viewBox="0 0 288.000000 175.000000"
 preserveAspectRatio="xMidYMid meet">

<g transform="translate(0.000000,175.000000) scale(0.100000,-0.100000)"
fill="#000000" stroke="none">
<path d="M820 1730 c-25 -10 -38 -19 -30 -19 17 1 101 37 85 38 -5 0 -30 -9
-55 -19z"/>
<path d="M919 1736 c8 -9 20 -16 27 -16 8 0 14 -5 14 -11 0 -5 4 -8 8 -5 5 3
14 -11 21 -30 7 -18 17 -34 22 -34 5 0 -3 24 -19 53 -22 42 -33 53 -57 55 -25
3 -27 2 -16 -12z"/>
<path d="M2757 1685 c-10 -14 -25 -25 -34 -25 -9 0 -14 -3 -10 -6 3 -3 -14
-36 -39 -73 -24 -36 -44 -71 -44 -78 0 -6 -5 -15 -12 -19 -8 -5 -9 -2 -5 9 9
23 0 21 -13 -2 -7 -14 -7 -22 2 -27 7 -5 8 -3 3 6 -5 8 -4 11 3 6 13 -8 7 -48
-13 -87 -21 -40 -34 -44 -58 -20 -12 11 -16 21 -10 21 6 0 16 -7 23 -15 15
-18 30 -11 29 13 0 10 -3 12 -6 5 -3 -10 -12 -9 -35 3 -17 9 -27 11 -24 5 4
-6 2 -11 -3 -11 -10 0 -16 29 -12 53 0 4 -4 7 -10 7 -7 0 -9 -10 -4 -27 6 -27
6 -27 -13 -10 -12 11 -18 27 -16 40 3 15 1 13 -7 -6 -6 -15 -14 -25 -18 -23
-4 3 -8 -5 -8 -17 -2 -20 -1 -20 8 -4 6 9 15 15 21 11 7 -4 5 -10 -3 -16 -11
-8 -11 -9 2 -5 9 3 22 1 30 -4 8 -5 10 -9 4 -9 -15 0 -11 -72 5 -97 8 -13 18
-23 23 -23 4 0 5 5 2 10 -3 6 -1 10 5 10 6 0 8 5 5 10 -4 6 -11 8 -16 4 -5 -3
-9 -2 -8 3 1 4 -1 16 -5 26 -5 9 -6 24 -2 32 5 13 9 13 26 3 11 -7 20 -16 20
-20 0 -12 82 -83 92 -80 5 1 4 -7 -2 -18 -6 -11 -21 -20 -33 -21 -12 0 -16 -3
-9 -6 13 -5 7 -23 -9 -23 -16 0 -10 29 11 50 19 19 20 20 1 20 -11 0 -22 8
-24 18 -4 16 -5 16 -6 0 0 -10 -5 -18 -11 -18 -5 0 -7 -6 -4 -14 3 -8 1 -17
-5 -21 -7 -4 -8 0 -5 10 5 11 2 16 -7 15 -30 -5 -50 0 -44 11 8 13 -25 40 -42
34 -7 -2 -10 2 -6 11 3 7 0 14 -5 14 -6 0 -9 -11 -6 -25 4 -26 -10 -35 -19
-12 -4 9 -6 9 -6 -1 -1 -17 -61 24 -61 41 0 6 -12 24 -27 39 -15 15 -21 28
-14 28 7 0 10 4 6 10 -3 5 -12 7 -20 3 -9 -3 -15 1 -15 10 0 21 17 31 23 15 4
-9 6 -9 6 1 1 10 10 6 30 -13 21 -20 31 -24 36 -15 5 7 4 10 -2 6 -6 -4 -18 2
-28 13 -18 20 -18 21 5 45 29 31 35 31 64 0 25 -27 47 -35 26 -10 -9 11 -10
18 -1 29 9 10 8 15 -3 19 -10 4 -13 1 -9 -9 8 -22 -15 -17 -28 7 -8 15 -8 24
0 32 6 6 11 18 11 26 0 14 -15 7 -15 -7 -1 -26 -18 -30 -49 -11 -28 16 -38 18
-60 8 -25 -12 -44 -45 -32 -56 3 -4 6 1 6 10 0 26 45 51 68 38 38 -20 42 -34
17 -63 -13 -16 -30 -28 -38 -28 -7 0 -18 -5 -24 -11 -8 -8 -19 -2 -42 22 -17
19 -31 39 -31 45 0 6 -7 17 -15 24 -8 7 -12 16 -9 21 3 5 2 9 -3 8 -20 -4 -32
2 -36 19 -4 16 -5 16 -6 0 0 -10 9 -22 20 -29 17 -9 19 -13 8 -20 -11 -7 -11
-9 3 -9 10 0 22 -9 28 -20 6 -11 9 -20 6 -20 -2 0 10 -14 27 -32 23 -22 28
-33 18 -36 -7 -2 -16 0 -20 6 -4 6 -11 5 -19 -4 -11 -12 -10 -14 5 -15 48 -3
73 -17 73 -41 0 -10 4 -17 9 -13 5 3 13 0 17 -6 5 -9 0 -10 -14 -7 -12 4 -25
2 -28 -4 -4 -6 -10 -5 -15 3 -4 8 -3 19 3 26 8 11 7 12 -6 7 -10 -4 -15 -13
-12 -20 4 -9 -2 -14 -15 -14 -18 0 -19 -2 -5 -15 8 -8 23 -12 33 -9 16 5 16 4
1 -5 -21 -14 -14 -69 13 -92 10 -9 19 -26 19 -39 0 -12 11 -31 25 -41 13 -11
27 -35 30 -53 8 -39 -17 -106 -39 -106 -8 0 -16 -5 -18 -10 -5 -17 -69 -13
-85 5 -4 4 -2 5 5 1 6 -4 12 -3 12 2 0 5 19 17 41 28 23 10 48 24 55 32 16 15
19 36 5 27 -5 -3 -12 -1 -16 5 -3 5 -28 9 -56 8 -45 -2 -49 -4 -49 -28 0 -25
-49 -90 -69 -90 -5 0 3 15 20 32 16 18 30 39 31 48 3 31 4 35 11 48 20 31 -15
62 -117 101 -23 9 -27 16 -22 34 3 12 6 35 6 51 0 23 3 27 20 23 22 -6 28 21
10 39 -7 7 6 8 40 4 28 -4 53 -4 55 0 2 3 -17 7 -42 9 -26 1 -51 3 -56 4 -12
2 -38 -44 -40 -72 0 -10 -6 -17 -13 -14 -11 4 -29 -13 -29 -29 0 -5 -3 -8 -7
-8 -7 0 -10 5 -7 13 6 20 5 38 -2 43 -16 10 -9 24 12 24 18 0 20 2 8 16 -11
14 -10 15 7 12 10 -1 22 -7 26 -13 4 -6 8 -2 8 8 0 9 -5 17 -12 17 -17 0 3 17
27 23 19 4 19 5 -1 6 -12 0 -27 -5 -33 -13 -11 -13 -53 -13 -158 -2 -26 3 -33
-1 -41 -23 -12 -31 -12 -62 0 -55 4 3 8 11 8 17 0 7 9 13 19 13 16 0 18 -4 9
-19 -5 -10 -7 -24 -5 -31 3 -7 -1 -13 -9 -13 -9 0 -13 6 -10 14 3 8 1 11 -4 8
-12 -7 -1 -67 15 -80 6 -5 10 -16 7 -23 -7 -23 19 -72 40 -72 25 0 69 30 62
41 -3 5 -2 9 3 8 20 -3 53 15 58 32 8 25 25 24 25 0 0 -11 14 -29 30 -41 17
-12 30 -24 30 -28 0 -4 -29 -6 -64 -5 -52 1 -68 -2 -81 -17 -10 -11 -22 -17
-27 -13 -7 3 -8 -14 -4 -48 3 -30 3 -48 0 -41 -5 10 -12 8 -31 -10 -14 -13
-24 -18 -23 -13 5 24 -2 27 -22 9 -19 -15 -20 -16 -9 -1 19 24 -2 22 -24 -3
-12 -13 -23 -17 -34 -11 -9 5 -24 7 -34 5 -11 -1 -16 0 -13 3 3 4 0 13 -6 21
-10 11 -9 17 4 26 14 10 14 13 0 26 -14 13 -15 12 -9 -3 3 -9 2 -19 -3 -22 -4
-3 -10 0 -12 7 -3 7 -10 8 -17 4 -11 -7 -11 -10 0 -16 10 -7 9 -18 -5 -54 -10
-25 -16 -47 -15 -48 1 -2 -3 -12 -9 -24 -9 -18 -8 -20 8 -19 11 1 23 5 27 10
5 4 2 5 -6 0 -10 -6 -12 -4 -6 5 5 8 4 11 -2 7 -5 -3 -10 0 -10 8 0 11 4 12
14 4 10 -9 17 -8 29 2 14 11 14 13 0 21 -9 5 -16 13 -16 19 0 5 9 4 20 -3 11
-7 20 -16 20 -19 0 -12 -50 -64 -62 -64 -6 0 -13 -5 -15 -11 -2 -6 10 -11 29
-11 18 0 27 2 20 5 -6 2 -12 7 -12 12 0 12 48 18 59 7 11 -11 34 0 26 14 -4 5
-2 9 3 9 12 0 26 -30 23 -47 -1 -9 18 -13 66 -14 37 0 77 -5 88 -10 13 -6 -10
-8 -70 -4 l-90 5 -2 -32 c-3 -45 -19 -56 -27 -17 -9 48 -18 29 -10 -22 4 -24
9 -38 12 -31 2 6 7 12 11 12 11 0 0 -74 -13 -82 -6 -4 -7 -8 -1 -8 6 0 10 -20
10 -44 -1 -37 -6 -48 -33 -71 -24 -20 -32 -23 -32 -11 0 8 -4 18 -10 21 -6 4
-10 -7 -10 -25 0 -22 9 -39 31 -59 19 -18 27 -31 20 -35 -22 -14 -10 -24 24
-21 36 3 36 3 33 -36 -1 -21 -6 -39 -10 -39 -4 0 -8 5 -8 11 0 8 -6 7 -17 -2
-11 -10 -14 -10 -9 -2 4 7 3 13 -2 13 -5 0 -12 -12 -15 -26 -3 -20 2 -33 21
-50 14 -13 31 -24 38 -24 18 0 30 -26 37 -82 4 -31 3 -48 -4 -48 -6 0 -7 -5
-3 -12 5 -8 0 -9 -14 -6 -13 4 -20 2 -16 -3 3 -6 -4 -7 -18 -4 -13 3 -35 1
-48 -5 -22 -9 -20 -10 13 -5 27 4 37 2 35 -7 -7 -29 178 -44 547 -45 166 -1
271 2 245 7 -67 11 -141 38 -110 39 27 1 17 17 -15 23 -15 2 -20 12 -22 38 -1
19 3 43 9 53 5 10 14 62 19 115 5 54 11 114 15 136 l6 38 54 -6 54 -6 -6 70
-7 70 39 1 c21 1 50 0 64 -1 14 -1 41 -2 60 -1 20 0 29 -3 22 -8 -7 -4 10 -7
37 -7 48 1 49 14 1 17 -24 2 -24 2 -2 6 12 2 20 9 17 14 -4 5 1 9 9 9 8 0 18
-5 21 -10 3 -5 12 -10 18 -10 8 0 8 3 -1 9 -11 7 -11 9 2 14 9 4 16 13 16 22
0 16 -27 20 -57 8 -14 -6 -11 -9 17 -14 l35 -6 -37 -2 c-35 -1 -38 1 -38 27 0
31 21 55 56 66 19 6 22 14 22 75 l0 69 -46 5 c-26 4 -66 2 -89 -2 -43 -8 -52
-4 -33 15 7 7 4 10 -9 9 -12 -1 -24 -5 -28 -10 -5 -4 -2 -5 5 -1 14 8 17 -10
3 -18 -11 -7 -33 18 -24 27 3 4 1 7 -5 7 -7 0 -13 -10 -13 -22 -1 -13 -5 4 -9
37 -4 33 -10 74 -14 90 -11 48 27 79 140 114 52 17 102 27 109 24 10 -3 15 2
15 16 0 12 -7 24 -15 27 -8 4 -12 10 -9 15 3 5 2 9 -3 8 -20 -3 -34 2 -28 11
4 6 11 8 16 5 5 -4 6 2 2 12 -6 17 -6 17 14 0 20 -18 21 -17 19 12 -1 25 -5
31 -23 31 -22 0 -53 24 -53 42 0 5 -10 18 -22 29 -19 16 -20 18 -4 12 13 -4
17 -3 12 5 -14 22 39 13 65 -12 l26 -24 1 36 c1 20 -4 40 -11 44 -9 6 -9 8 1
8 17 0 15 39 -3 46 -8 4 -15 13 -15 21 0 16 -28 42 -45 42 -5 0 -1 -6 9 -14
15 -11 16 -17 8 -28 -7 -8 -8 -18 -4 -23 4 -4 0 -3 -9 4 -9 6 -18 9 -21 6 -3
-2 -8 2 -12 11 -4 11 -2 14 7 9 6 -4 3 2 -7 14 -11 12 -20 22 -21 22 -8 0 -1
-57 8 -68 6 -7 6 -12 1 -11 -22 4 -35 -2 -28 -13 4 -7 3 -8 -5 -4 -6 4 -9 11
-6 16 3 5 1 11 -5 15 -5 3 -10 2 -10 -4 0 -20 -35 -3 -38 19 -3 16 0 20 9 15
8 -5 10 -4 5 3 -5 9 -13 9 -28 1 -18 -10 -19 -8 -13 13 9 29 62 114 90 143 41
43 58 65 49 65 -5 0 -17 -12 -27 -25z m-74 -260 c-1 -5 -5 -19 -8 -30 -6 -17
-4 -17 13 4 17 21 20 22 26 6 7 -20 -8 -35 -38 -35 -10 0 -25 -8 -33 -17 -13
-17 -14 -17 -9 2 2 11 7 34 10 50 l6 30 -16 -25 c-9 -14 -13 -17 -10 -7 3 10
6 23 6 28 0 6 12 9 28 7 15 -2 26 -7 25 -13z m163 -16 c3 -5 -2 -9 -10 -9 -9
0 -16 4 -16 9 0 5 -7 8 -16 7 -9 0 -19 5 -21 11 -3 10 3 10 26 2 17 -6 34 -15
37 -20z m-9 -25 c-3 -3 -12 -4 -19 -1 -8 3 -5 6 6 6 11 1 17 -2 13 -5z m-217
-28 c0 -8 3 -21 6 -30 3 -9 1 -16 -5 -16 -6 0 -11 12 -11 26 0 16 -4 23 -12
18 -7 -4 -8 -3 -4 4 10 17 26 15 26 -2z m90 -15 c0 -14 -54 -63 -58 -52 -2 5
-11 7 -20 4 -15 -6 -15 -4 1 15 11 11 25 18 32 16 7 -3 19 2 26 10 16 18 19
19 19 7z m80 -41 c0 -6 -5 -10 -11 -10 -5 0 -7 5 -4 10 3 6 -1 10 -9 10 -9 0
-16 5 -16 10 0 7 6 7 20 0 11 -6 20 -15 20 -20z m-64 -27 c-1 -1 -12 0 -24 4
-21 5 -21 6 -5 18 15 11 19 11 24 -3 4 -9 6 -18 5 -19z m-268 -24 c-17 -10
-28 -2 -21 17 4 11 8 12 20 3 11 -10 11 -14 1 -20z m232 -4 c0 -2 -10 -10 -22
-16 -21 -11 -22 -11 -9 4 13 16 31 23 31 12z m45 -5 c3 -5 -3 -10 -15 -10 -12
0 -18 5 -15 10 3 6 10 10 15 10 5 0 12 -4 15 -10z m95 -5 c0 -7 -30 -13 -34
-7 -3 4 4 9 15 9 10 1 19 0 19 -2z m-306 -31 c3 -8 2 -12 -4 -9 -6 3 -10 10
-10 16 0 14 7 11 14 -7z m7 -65 c1 -5 2 -13 3 -18 0 -5 5 -13 10 -18 5 -5 6
-3 2 5 -4 6 -3 12 2 12 4 0 14 -16 22 -35 9 -23 17 -32 23 -26 7 7 5 16 -4 27
-9 12 -10 15 -1 10 6 -4 12 -2 12 3 0 6 7 11 15 11 21 0 19 -24 -5 -45 -12
-11 -18 -25 -15 -34 4 -9 8 -42 11 -73 l4 -57 -32 4 c-37 5 -48 19 -48 63 0
21 5 32 14 32 21 0 39 27 32 47 -5 13 -9 14 -15 5 -4 -7 -15 -10 -23 -7 -12 5
-16 -4 -21 -37 -5 -46 -14 -69 -50 -132 -25 -45 -54 -62 -44 -27 3 11 1 19 -4
16 -4 -3 -15 9 -22 27 -8 19 -23 42 -33 52 -14 15 -18 33 -17 77 0 31 6 66 12
76 8 14 11 15 11 3 1 -9 5 -5 10 8 5 12 23 30 39 40 17 9 36 27 43 40 l12 23
28 -32 c15 -17 29 -36 29 -40z m287 55 c33 -23 27 -39 -19 -53 -23 -7 -48 -15
-56 -18 -13 -5 -13 -2 1 25 9 17 22 30 29 28 6 -1 9 -1 5 1 -13 7 -9 33 5 33
7 0 23 -7 35 -16z m-883 -3 c3 -5 0 -13 -6 -17 -7 -4 -9 -3 -5 4 3 5 0 13 -6
15 -9 4 -10 6 -1 6 6 1 14 -3 18 -8z m41 -11 c0 -20 -7 -25 -19 -13 -4 3 -2
12 4 20 15 17 15 17 15 -7z m724 10 c0 -5 -2 -10 -4 -10 -3 0 -8 5 -11 10 -3
6 -1 10 4 10 6 0 11 -4 11 -10z m26 -22 c-4 -18 -12 -38 -19 -44 -15 -15 -139
-4 -144 12 -4 12 64 60 73 52 2 -3 -7 -11 -21 -18 -14 -7 -25 -17 -25 -22 0
-5 -5 -6 -12 -2 -7 4 -8 3 -4 -4 4 -8 18 -5 41 9 35 21 46 15 23 -11 -11 -12
-10 -12 5 -1 9 7 17 20 17 28 0 11 7 14 21 10 12 -3 22 0 26 9 11 28 26 14 19
-18z m-649 -234 c-16 -8 -36 -13 -45 -11 -11 2 -5 7 18 14 50 16 59 15 27 -3z
m608 -104 c3 -5 16 -10 28 -11 12 0 17 -3 10 -5 -7 -3 -10 -11 -7 -18 5 -12
-48 -36 -79 -36 -30 0 -18 -16 33 -42 27 -14 46 -28 43 -32 -4 -3 0 -6 8 -6 8
-1 -2 -8 -21 -16 -35 -15 -94 -12 -105 6 -8 13 15 100 27 100 5 0 7 4 4 9 -4
5 -2 21 4 35 10 26 43 36 55 16z m65 -50 c0 -5 -2 -10 -4 -10 -3 0 -8 5 -11
10 -3 6 -1 10 4 10 6 0 11 -4 11 -10z m75 -1 c7 -11 -35 -28 -53 -22 -18 7 1
28 27 30 11 1 23 -3 26 -8z m-135 -148 c0 -6 12 -9 27 -8 18 1 28 -3 31 -14 4
-21 -28 -34 -42 -18 -7 8 -7 10 -1 6 6 -3 17 -2 25 4 12 7 10 9 -7 9 -12 0
-28 3 -37 6 -18 7 -22 24 -6 24 6 0 10 -4 10 -9z m-892 -225 c-2 -12 -7 -13
-18 -5 -11 8 -12 12 -2 16 6 2 9 10 6 16 -5 9 -4 9 5 1 7 -7 11 -19 9 -28z"/>
<path d="M2433 1008 c27 -7 45 -7 60 0 18 9 11 11 -38 10 -59 0 -60 0 -22 -10z"/>
<path d="M2637 1669 c7 -7 15 -10 18 -7 3 3 -2 9 -12 12 -14 6 -15 5 -6 -5z"/>
<path d="M2676 1665 c4 -8 10 -15 15 -15 4 0 6 7 3 15 -4 8 -10 15 -15 15 -4
0 -6 -7 -3 -15z"/>
<path d="M630 1650 c-8 -5 -10 -10 -5 -10 6 0 17 5 25 10 8 5 11 10 5 10 -5 0
-17 -5 -25 -10z"/>
<path d="M2778 1653 c7 -3 16 -2 19 1 4 3 -2 6 -13 5 -11 0 -14 -3 -6 -6z"/>
<path d="M2830 1630 c8 -5 20 -10 25 -10 6 0 3 5 -5 10 -8 5 -19 10 -25 10 -5
0 -3 -5 5 -10z"/>
<path d="M1020 1628 c0 -11 30 -78 35 -78 3 0 -2 17 -10 37 -15 36 -25 52 -25
41z"/>
<path d="M2215 1619 c-11 -16 -1 -19 13 -3 7 8 8 14 3 14 -5 0 -13 -5 -16 -11z"/>
<path d="M510 1602 c-18 -11 -36 -25 -38 -32 -3 -7 6 -4 18 8 13 12 29 22 36
22 7 0 16 5 19 10 8 14 5 13 -35 -8z"/>
<path d="M2861 1611 c-8 -5 -9 -11 -3 -15 5 -3 12 1 16 9 6 17 6 18 -13 6z"/>
<path d="M2230 1575 c24 -8 46 -13 48 -11 5 5 -59 26 -77 25 -9 0 4 -7 29 -14z"/>
<path d="M377 1522 c-21 -27 -44 -71 -53 -102 -8 -30 -18 -62 -21 -70 -8 -18
-10 -27 -12 -39 0 -5 -10 -13 -21 -16 -15 -5 -18 -11 -12 -23 9 -19 9 -17 -2
-85 -4 -27 -10 -46 -13 -43 -4 3 -17 -1 -31 -10 l-24 -16 4 39 c3 21 6 43 7
48 6 18 1 148 -5 143 -3 -4 -7 -38 -9 -78 -3 -72 -14 -108 -16 -54 -1 16 -1
34 0 40 3 25 -20 66 -33 61 -15 -6 -39 15 -31 26 3 4 2 5 -2 2 -9 -7 -13 -35
-5 -34 19 3 23 -3 12 -16 -14 -17 -35 -21 -25 -5 3 6 1 10 -4 10 -6 0 -11 11
-11 25 0 18 7 28 25 35 14 5 25 15 25 22 0 10 -3 9 -9 -1 -11 -17 -41 -7 -41
13 0 8 12 27 28 41 l27 25 7 -41 c4 -23 5 -46 2 -50 -3 -5 2 -12 10 -15 9 -3
16 -13 16 -21 0 -8 4 -12 9 -9 16 10 0 48 -17 41 -12 -4 -13 -3 -2 9 6 9 17
14 23 13 18 -3 20 33 2 53 -9 10 -14 24 -10 30 3 6 1 9 -7 8 -9 -2 -13 7 -12
29 1 18 -2 30 -7 27 -5 -3 -9 -17 -9 -31 0 -23 -28 -59 -63 -80 -11 -6 -12
-27 -6 -97 5 -49 6 -93 3 -98 -4 -6 -16 -7 -28 -4 -21 5 -21 5 -1 -10 19 -14
21 -29 9 -63 -4 -11 -8 -10 -18 5 -10 14 -11 23 -4 32 8 9 7 11 -6 6 -20 -8
-21 -57 -2 -73 8 -7 18 -27 22 -44 3 -18 13 -44 20 -59 18 -35 1 -38 -33 -6
-13 12 -23 17 -23 11 0 -5 9 -18 20 -28 25 -22 26 -35 2 -35 -11 0 -18 -7 -18
-20 0 -11 4 -20 8 -20 4 0 8 7 8 15 0 9 9 15 25 15 16 0 25 -6 25 -16 0 -8 -4
-12 -10 -9 -10 6 -14 -7 -11 -31 1 -7 -10 -15 -25 -18 -25 -7 -26 -8 -20 -74
6 -86 6 -82 3 -116 -3 -35 8 -39 115 -40 42 -1 74 -4 71 -8 -2 -5 3 -8 12 -8
13 0 15 -9 11 -47 -3 -27 -8 -58 -11 -70 -4 -14 -3 -23 3 -23 10 0 21 -87 12
-93 -3 -2 1 -2 7 -1 7 2 13 -4 13 -14 1 -16 1 -16 11 1 6 9 14 15 18 13 4 -3
8 1 8 9 0 11 -4 12 -14 3 -23 -19 -28 1 -5 22 12 11 20 17 17 14 -6 -9 14 -34
27 -34 5 0 6 5 2 11 -4 8 0 8 15 0 27 -15 27 -23 -5 -55 -15 -14 -27 -37 -27
-52 0 -15 -3 -21 -7 -15 -4 8 -15 2 -31 -18 -13 -16 -26 -28 -29 -26 -3 2 -3
-19 -2 -46 4 -46 5 -48 25 -37 12 6 28 17 35 25 7 7 18 13 25 13 6 0 -3 -11
-21 -23 -17 -13 -28 -28 -24 -32 4 -5 3 -6 -3 -3 -5 3 -19 2 -30 -2 -17 -6
-20 -15 -17 -53 l4 -46 51 3 c29 2 63 7 77 11 14 3 1 -5 -29 -18 -33 -15 -49
-27 -42 -32 15 -9 91 2 154 22 37 12 69 14 135 9 48 -4 132 -9 187 -12 55 -2
110 -6 122 -8 12 -2 20 0 18 5 -3 4 1 10 7 13 7 3 -25 3 -72 1 -78 -4 -83 10
-5 15 17 1 23 4 13 7 -9 2 -18 16 -20 31 -3 30 18 82 33 82 6 0 8 4 4 9 -3 5
4 12 15 16 11 3 20 9 21 13 0 4 2 52 5 107 2 55 6 105 8 111 2 5 22 16 45 23
47 14 76 50 67 84 -5 20 -11 23 -37 19 -17 -2 -33 -10 -36 -18 -2 -7 -10 -11
-18 -8 -7 3 -15 -2 -18 -11 -4 -8 -18 -20 -33 -25 -14 -6 -28 -19 -31 -30 -5
-20 -23 -28 -23 -10 0 6 -6 10 -14 10 -9 0 -15 -15 -18 -47 -4 -40 0 -52 20
-73 18 -18 25 -21 31 -11 5 7 9 -13 10 -48 1 -54 -11 -81 -21 -49 -3 7 -7 5
-11 -6 -5 -11 -3 -15 5 -10 7 4 8 3 4 -5 -5 -8 -12 -9 -20 -2 -7 6 -17 6 -26
1 -11 -7 -12 -10 -2 -10 7 0 19 -6 27 -13 11 -11 10 -16 -6 -26 -11 -6 -25 -9
-30 -5 -7 4 -6 -2 1 -16 8 -15 8 -20 1 -16 -6 4 -11 0 -12 -11 -1 -28 -18 20
-22 64 -2 20 -9 39 -16 41 -6 2 -11 15 -11 28 0 13 -4 24 -10 24 -16 0 -12 57
6 74 8 9 13 24 10 33 -3 10 -1 32 4 48 9 28 10 28 4 -7 -3 -23 -1 -38 6 -38
17 0 12 78 -6 88 -13 7 -14 16 -7 43 22 87 1 559 -27 624 -5 11 -14 36 -19 55
l-9 35 -1 -37 c-1 -20 4 -40 9 -43 6 -4 8 -26 4 -56 -4 -28 -2 -54 3 -61 17
-22 35 -232 28 -322 -7 -80 -9 -85 -34 -92 l-26 -7 30 -7 c29 -7 29 -8 -8 -9
-25 -1 -36 3 -31 10 4 7 -1 10 -12 7 -11 -2 -18 -8 -16 -13 2 -6 -7 -13 -20
-17 -13 -3 9 -5 47 -3 52 3 61 2 35 -4 -33 -8 -33 -8 -7 -10 16 0 26 -5 23
-10 -3 -5 -15 -7 -26 -4 -12 3 -22 -1 -26 -11 -3 -9 -10 -16 -16 -16 -5 0 -6
5 -3 10 3 6 -3 10 -14 10 -12 0 -21 -4 -21 -10 0 -5 -5 -10 -11 -10 -5 0 -8 4
-5 8 2 4 1 14 -3 20 -6 10 -14 9 -35 -2 -24 -12 -25 -15 -9 -19 10 -2 0 -4
-23 -4 -28 -1 -41 4 -41 13 0 10 13 14 39 14 26 0 38 4 38 14 0 12 -6 13 -30
4 -17 -5 -37 -7 -46 -4 -13 5 -15 2 -11 -13 3 -11 0 -22 -7 -24 -30 -12 66
-36 143 -36 46 0 86 -3 90 -6 3 -4 -46 -5 -109 -4 -75 2 -123 -1 -137 -9 -29
-16 -43 -15 -43 3 0 8 -11 17 -25 21 -23 6 -25 11 -25 60 0 89 -31 142 -108
188 -10 6 -13 3 -12 -10 4 -33 0 -45 -11 -39 -5 4 -9 19 -7 33 2 21 -2 27 -22
32 -20 5 -24 11 -21 31 1 13 7 31 12 40 5 10 11 43 13 75 5 65 13 91 49 147
l23 38 47 -56 c26 -32 45 -60 43 -64 -3 -4 9 -14 26 -24 24 -14 29 -14 25 -3
-3 8 1 20 9 27 8 7 12 19 9 27 -3 8 0 20 5 28 9 9 6 18 -9 33 -19 19 -26 19
-22 -2 1 -5 -3 -5 -9 -2 -15 9 18 45 35 39 7 -3 27 7 44 22 l32 27 -23 12
c-24 12 -38 10 -38 -6 0 -6 6 -7 13 -3 6 4 4 -2 -6 -13 -9 -11 -14 -23 -10
-28 5 -4 2 -5 -5 -1 -7 4 -9 13 -5 19 4 6 8 20 8 30 2 23 25 48 25 27 0 -13 2
-13 11 0 9 12 10 12 5 -3 -4 -13 -1 -18 11 -15 16 3 25 25 24 60 0 10 5 21 11
24 6 4 8 3 5 -2 -3 -6 -2 -16 4 -24 5 -8 9 -10 9 -4 0 16 47 5 62 -15 11 -14
11 -14 -3 -3 -16 12 -49 7 -49 -7 0 -4 -12 -13 -26 -20 -15 -6 -24 -14 -21
-18 4 -3 13 0 22 7 13 11 19 10 35 -5 14 -13 20 -14 20 -5 0 7 3 11 6 7 14
-14 -7 -27 -27 -16 -17 8 -27 5 -55 -16 -18 -14 -33 -31 -31 -37 1 -7 -4 -13
-10 -14 -7 -1 -21 -2 -30 -4 -12 -1 -6 -7 16 -16 26 -12 36 -13 45 -3 8 9 8
10 -1 5 -24 -13 -22 12 2 28 14 9 26 14 26 11 1 -3 2 -10 3 -17 0 -6 11 -12
23 -13 18 -1 20 1 12 12 -9 10 -8 13 5 13 9 0 16 5 16 10 0 6 7 10 15 10 8 0
15 4 15 9 0 5 10 11 22 13 13 2 22 12 25 27 2 17 -1 22 -12 17 -9 -3 -15 0
-15 10 0 10 6 14 14 11 20 -8 28 4 13 21 -10 13 -9 14 1 8 19 -12 26 21 7 40
-9 9 -14 23 -11 30 3 8 -6 26 -20 41 l-24 26 25 -57 c29 -66 30 -70 11 -63
-11 4 -13 0 -11 -15 3 -11 1 -18 -2 -14 -11 11 -14 46 -3 46 5 0 7 7 4 15 -4
8 -10 12 -15 9 -5 -3 -9 9 -9 25 0 31 0 31 -19 12 -12 -12 -17 -27 -14 -40 5
-21 -11 -29 -22 -11 -4 6 -11 8 -16 5 -21 -13 -7 8 21 31 20 18 28 32 26 47
-3 12 -5 25 -5 30 -1 4 -5 7 -11 7 -6 0 -6 -9 0 -26 11 -28 -2 -46 -42 -59 -9
-3 -23 -17 -32 -30 -9 -13 -26 -30 -38 -36 -23 -11 -23 -11 1 15 14 14 20 26
15 26 -5 1 12 12 39 26 26 13 47 29 47 35 0 6 -6 9 -14 6 -8 -3 -16 -1 -18 5
-3 7 -17 -5 -32 -25 -16 -20 -33 -34 -39 -30 -6 4 -8 -2 -5 -15 4 -13 0 -23
-9 -26 -8 -3 -12 -2 -9 2 2 4 -4 9 -15 9 -10 1 -19 -3 -19 -8 0 -6 6 -7 13 -3
6 4 3 -2 -7 -14 -11 -12 -16 -22 -11 -22 4 0 2 -7 -5 -15 -9 -11 -16 -12 -25
-5 -9 8 -15 8 -20 0 -3 -5 -12 -10 -18 -10 -7 0 2 11 18 25 19 16 23 23 11 18
-19 -6 -19 -6 0 20 10 14 29 31 42 38 12 7 22 19 22 26 0 8 4 12 9 9 5 -3 12
1 15 10 4 11 13 14 30 10 15 -4 28 0 37 10 7 9 21 13 32 10 15 -4 17 -2 9 6
-8 8 -7 14 4 22 13 10 13 13 0 31 -15 20 -15 20 -16 -2 0 -15 -6 -23 -17 -23
-9 0 -13 3 -10 7 4 3 2 12 -5 20 -8 11 -7 12 5 8 8 -4 18 -2 22 4 8 15 -32 71
-51 71 -8 0 -12 5 -9 10 7 11 -12 40 -24 40 -3 -1 -23 -22 -44 -48z m51 -8 c0
-17 -3 -22 -8 -13 -5 6 -6 18 -3 26 8 19 11 16 11 -13z m-251 -90 c3 -9 0 -20
-8 -25 -14 -8 -31 18 -22 34 7 12 23 8 30 -9z m213 -18 c0 -2 -8 -10 -17 -17
-16 -13 -17 -12 -4 4 13 16 21 21 21 13z m-237 -158 l6 -38 -27 18 c-24 15
-23 12 6 -17 33 -34 34 -35 28 -103 -4 -42 -3 -67 3 -64 5 4 7 -4 3 -16 -4
-16 -7 -18 -10 -8 -3 8 -8 17 -12 20 -4 3 -28 24 -53 47 -44 40 -45 44 -36 78
8 26 15 35 32 35 20 1 20 2 4 11 -21 13 -15 43 16 77 24 26 31 19 40 -40z
m247 -22 c0 -2 -8 -10 -17 -17 -16 -13 -17 -12 -4 4 13 16 21 21 21 13z m156
-28 c4 -7 3 -8 -4 -4 -7 4 -12 2 -12 -3 0 -6 -5 -11 -11 -11 -8 0 -8 5 1 15
15 18 17 18 26 3z m-176 -14 c0 -8 -19 -13 -24 -6 -3 5 1 9 9 9 8 0 15 -2 15
-3z m237 -20 c0 -6 -9 -9 -19 -6 -10 2 -18 0 -18 -6 0 -12 -70 -55 -77 -48 -8
8 8 27 18 21 5 -4 9 -1 9 5 0 6 4 9 10 5 5 -3 16 5 25 19 17 25 52 32 52 10z
m-102 -24 c-3 -6 -21 -17 -38 -26 l-32 -15 30 25 c30 26 51 34 40 16z m-185
-4 c0 -2 -7 -7 -16 -10 -8 -3 -12 -2 -9 4 6 10 25 14 25 6z m-90 -13 c-1 -5
-11 -21 -24 -36 -20 -25 -24 -27 -30 -11 -4 10 0 24 10 35 17 19 44 26 44 12z
m-145 -60 c36 -49 41 -73 16 -81 -8 -3 -11 0 -7 7 4 6 1 14 -7 17 -8 3 -20 24
-28 47 -7 23 -18 45 -24 49 -6 5 -6 8 2 8 7 0 29 -21 48 -47z m241 -18 c-10
-8 -24 -11 -30 -8 -6 4 0 10 14 14 36 10 37 10 16 -6z m-187 -29 c-3 -3 -11 5
-18 17 -13 21 -12 21 5 5 10 -10 16 -20 13 -22z m-79 -291 c0 -8 -4 -15 -10
-15 -5 0 -10 7 -10 15 0 8 5 15 10 15 6 0 10 -7 10 -15z m-7 -32 c-7 -2 -19
-2 -25 0 -7 3 -2 5 12 5 14 0 19 -2 13 -5z m129 -11 c-7 -2 -10 -8 -6 -13 6
-11 -4 -11 -31 1 -19 8 -19 9 3 9 13 1 20 5 17 11 -4 6 1 7 11 3 11 -4 13 -8
6 -11z m-105 -28 c-3 -3 -12 -4 -19 -1 -8 3 -5 6 6 6 11 1 17 -2 13 -5z m214
-187 c-10 -9 -11 -8 -5 6 3 10 9 15 12 12 3 -3 0 -11 -7 -18z m217 6 c-10 -2
-28 -2 -40 0 -13 2 -5 4 17 4 22 1 32 -1 23 -4z m79 -9 c-3 -3 -12 -4 -19 -1
-8 3 -5 6 6 6 11 1 17 -2 13 -5z m-182 -94 c3 -5 1 -10 -4 -10 -6 0 -11 5 -11
10 0 6 2 10 4 10 3 0 8 -4 11 -10z m142 -46 c-3 -3 -12 -4 -19 -1 -8 3 -5 6 6
6 11 1 17 -2 13 -5z m-140 -50 c-3 -3 -12 -4 -19 -1 -8 3 -5 6 6 6 11 1 17 -2
13 -5z m46 -11 c-7 -2 -19 -2 -25 0 -7 3 -2 5 12 5 14 0 19 -2 13 -5z m134
-19 c-3 -3 -12 -4 -19 -1 -8 3 -5 6 6 6 11 1 17 -2 13 -5z m-267 -14 c0 -5 -5
-10 -11 -10 -5 0 -7 5 -4 10 3 6 8 10 11 10 2 0 4 -4 4 -10z m88 3 c-10 -2
-26 -2 -35 0 -10 3 -2 5 17 5 19 0 27 -2 18 -5z m116 -14 c-6 -11 -41 -12 -47
-1 -3 4 8 7 24 8 15 1 26 -3 23 -7z m56 7 c0 -11 -19 -15 -25 -6 -3 5 1 10 9
10 9 0 16 -2 16 -4z m243 -21 c-3 -9 -8 -14 -10 -11 -3 3 -2 9 2 15 9 16 15
13 8 -4z m-316 -31 c-3 -3 -12 -4 -19 -1 -8 3 -5 6 6 6 11 1 17 -2 13 -5z
m-50 -10 c-3 -3 -12 -4 -19 -1 -8 3 -5 6 6 6 11 1 17 -2 13 -5z m43 -14 c0 -5
-7 -7 -15 -4 -8 4 -15 8 -15 10 0 2 7 4 15 4 8 0 15 -4 15 -10z m-213 -6 c-3
-3 -12 -4 -19 -1 -8 3 -5 6 6 6 11 1 17 -2 13 -5z m250 0 c-3 -3 -12 -4 -19
-1 -8 3 -5 6 6 6 11 1 17 -2 13 -5z m-140 -70 c-3 -3 -12 -4 -19 -1 -8 3 -5 6
6 6 11 1 17 -2 13 -5z"/>
<path d="M2465 1559 c-4 -6 -5 -12 -2 -15 2 -3 7 2 10 11 7 17 1 20 -8 4z"/>
<path d="M2750 1560 c-9 -6 -10 -10 -3 -10 6 0 15 5 18 10 8 12 4 12 -15 0z"/>
<path d="M674 1539 c-22 -6 -37 -20 -48 -44 -15 -30 -16 -79 -2 -92 3 -3 1
-16 -5 -30 -6 -16 -6 -22 1 -18 6 3 10 1 10 -5 0 -6 3 -9 8 -6 4 2 23 1 42 -3
29 -6 38 -3 53 16 10 13 25 23 34 23 13 0 13 -2 2 -17 -12 -14 -12 -16 1 -11
8 2 16 16 17 29 1 13 5 36 9 51 10 43 -4 77 -39 98 -35 22 -38 22 -83 9z m43
-185 c-3 -3 -12 -4 -19 -1 -8 3 -5 6 6 6 11 1 17 -2 13 -5z"/>
<path d="M2588 1528 c4 -15 5 -15 23 0 10 9 19 17 19 17 0 0 -11 0 -23 0 -17
0 -23 -5 -19 -17z"/>
<path d="M2720 1520 c-6 -11 -16 -18 -21 -14 -16 10 6 -30 26 -46 21 -18 30
-6 10 14 -9 9 -13 16 -8 16 4 0 8 11 8 25 0 30 -1 31 -15 5z"/>
<path d="M2455 1520 c3 -5 11 -10 16 -10 6 0 7 5 4 10 -3 6 -11 10 -16 10 -6
0 -7 -4 -4 -10z"/>
<path d="M100 1500 c6 -11 13 -20 16 -20 2 0 0 9 -6 20 -6 11 -13 20 -16 20
-2 0 0 -9 6 -20z"/>
<path d="M1070 1516 c0 -11 40 -86 45 -86 3 0 -4 19 -16 43 -23 45 -29 54 -29
43z"/>
<path d="M2095 1510 c-12 -4 -27 -16 -35 -26 -13 -16 -11 -16 9 1 13 11 25 19
27 18 2 -1 14 2 26 7 13 5 16 9 8 9 -8 0 -24 -4 -35 -9z"/>
<path d="M2550 1499 c0 -5 5 -7 10 -4 6 3 10 8 10 11 0 2 -4 4 -10 4 -5 0 -10
-5 -10 -11z"/>
<path d="M515 1476 c10 -14 19 -26 22 -26 7 0 -17 39 -28 46 -6 3 -3 -5 6 -20z"/>
<path d="M2136 1481 c-5 -7 -17 -11 -27 -8 -12 3 -19 0 -19 -9 0 -8 6 -11 17
-7 10 4 14 2 9 -5 -3 -6 -1 -14 5 -18 7 -4 9 -3 5 4 -3 6 -2 13 3 16 5 4 11
-4 13 -16 3 -22 4 -22 9 -3 8 27 -5 64 -15 46z"/>
<path d="M65 1460 c-3 -5 -1 -10 4 -10 6 0 11 5 11 10 0 6 -2 10 -4 10 -3 0
-8 -4 -11 -10z"/>
<path d="M263 1431 c-18 -15 -20 -20 -8 -25 9 -3 15 0 15 9 0 8 8 19 18 24 9
6 13 10 7 10 -5 0 -20 -8 -32 -18z"/>
<path d="M2170 1440 c0 -5 5 -10 10 -10 6 0 10 5 10 10 0 6 -4 10 -10 10 -5 0
-10 -4 -10 -10z"/>
<path d="M1120 1418 c0 -4 9 -23 21 -42 11 -19 18 -40 14 -46 -3 -6 0 -7 10
-4 13 5 12 11 -6 43 -25 40 -39 58 -39 49z"/>
<path d="M223 1405 c4 -5 -1 -18 -10 -29 -10 -12 -14 -18 -9 -14 5 4 15 3 23
-3 9 -9 13 -8 13 0 0 6 -5 11 -11 11 -8 0 -8 4 0 14 9 11 9 16 -1 22 -7 4 -10
3 -5 -1z"/>
<path d="M2110 1400 c-18 -12 -2 -12 25 0 13 6 15 9 5 9 -8 0 -22 -4 -30 -9z"/>
<path d="M2385 1369 c3 -15 0 -19 -11 -15 -9 3 -12 1 -9 -4 3 -6 2 -10 -3 -10
-6 0 -8 -8 -5 -19 7 -27 52 -24 47 3 -2 11 1 25 7 32 13 15 4 34 -16 34 -9 0
-12 -8 -10 -21z m9 -37 c3 -5 -1 -9 -9 -9 -8 0 -12 4 -9 9 3 4 7 8 9 8 2 0 6
-4 9 -8z"/>
<path d="M2432 1353 c-10 -4 -8 -9 5 -19 23 -17 33 -17 33 0 0 16 -19 25 -38
19z"/>
<path d="M430 1340 c-8 -5 -12 -12 -9 -15 4 -3 12 1 19 10 14 17 11 19 -10 5z"/>
<path d="M270 1332 c0 -6 -8 -13 -17 -15 -16 -4 -16 -5 -1 -6 18 -1 34 16 24
26 -3 4 -6 1 -6 -5z"/>
<path d="M1197 1290 c3 -11 9 -20 15 -20 5 0 4 9 -2 20 -6 11 -12 20 -14 20
-2 0 -2 -9 1 -20z"/>
<path d="M2850 1306 c0 -2 8 -10 18 -17 15 -13 16 -12 3 4 -13 16 -21 21 -21
13z"/>
<path d="M220 1274 c8 -10 15 -20 16 -22 1 -2 4 1 7 5 3 5 -4 15 -16 23 -21
12 -21 12 -7 -6z"/>
<path d="M1999 1263 c-13 -17 -13 -17 6 -3 11 8 22 16 24 17 2 2 0 3 -6 3 -6
0 -17 -8 -24 -17z"/>
<path d="M1220 1257 c0 -5 4 -16 10 -26 8 -16 2 -20 -48 -35 -31 -9 -97 -25
-147 -35 -88 -17 -90 -18 -109 -55 -21 -44 -33 -181 -22 -270 7 -55 8 -56 39
-56 39 0 65 40 41 64 -24 25 -28 90 -9 168 22 89 31 108 53 108 24 0 172 50
203 69 26 16 26 16 7 46 -10 17 -18 26 -18 22z"/>
<path d="M335 1220 c4 -6 11 -8 16 -5 14 9 11 15 -7 15 -8 0 -12 -5 -9 -10z"/>
<path d="M1768 1165 c-14 -36 -21 -68 -17 -71 5 -3 9 -1 9 5 0 5 10 11 23 13
12 2 21 9 19 16 -1 8 1 11 6 8 12 -7 -11 -99 -26 -104 -6 -2 -12 7 -14 20 -3
13 -5 -1 -6 -31 0 -29 2 -51 5 -47 3 3 13 1 23 -4 13 -7 22 -4 35 10 16 18 20
19 40 6 13 -8 25 -13 28 -10 9 10 -12 78 -28 86 -8 5 -13 13 -10 18 3 5 1 11
-5 15 -15 10 -11 -37 5 -59 8 -11 15 -23 15 -26 0 -10 -87 -7 -96 3 -4 4 5 7
22 5 39 -3 59 9 44 27 -6 7 -11 28 -12 46 -1 53 -8 80 -18 74 -5 -3 -12 -1
-15 5 -4 6 -3 9 2 8 4 -2 8 2 8 7 0 6 -3 9 -6 8 -4 -1 -5 7 -2 17 11 41 -4 18
-29 -45z m51 -182 c-6 -7 -15 -10 -20 -7 -13 8 -3 21 15 21 12 0 13 -4 5 -14z"/>
<path d="M1390 1100 c0 -6 7 -10 15 -10 8 0 15 2 15 4 0 2 -7 6 -15 10 -8 3
-15 1 -15 -4z"/>
<path d="M1943 1103 c-7 -3 -13 -12 -13 -21 0 -15 2 -15 17 1 18 18 16 27 -4
20z"/>
<path d="M550 1080 c0 -5 5 -10 11 -10 5 0 7 5 4 10 -3 6 -8 10 -11 10 -2 0
-4 -4 -4 -10z"/>
<path d="M1590 1075 c-7 -9 -11 -17 -9 -20 3 -2 10 5 17 15 14 24 10 26 -8 5z"/>
<path d="M1326 1071 c-4 -5 -2 -12 3 -15 5 -4 12 -2 15 3 4 5 2 12 -3 15 -5 4
-12 2 -15 -3z"/>
<path d="M471 1048 c-16 -26 -11 -30 11 -7 10 10 14 20 10 23 -5 3 -14 -4 -21
-16z"/>
<path d="M1243 1034 c2 -18 6 -36 10 -40 11 -11 8 -26 -3 -19 -19 12 -10 -7
13 -26 18 -15 20 -20 8 -28 -10 -6 -22 -6 -35 1 -19 10 -20 10 -7 -5 7 -10 10
-17 5 -17 -5 0 -4 -4 3 -8 9 -6 6 -11 -8 -21 -12 -7 -18 -8 -15 -2 4 5 2 12
-3 15 -14 9 -25 -14 -12 -27 11 -11 -2 -37 -19 -37 -14 0 -17 35 -4 47 7 7 10
22 6 35 -5 17 -7 19 -10 6 -2 -9 -13 -19 -25 -22 -12 -3 -31 -12 -42 -21 -11
-9 -14 -14 -7 -10 19 10 14 -9 -8 -28 -12 -10 -18 -23 -14 -29 5 -8 10 -6 14
7 6 17 7 17 13 2 3 -9 4 -25 1 -34 -5 -17 -5 -17 6 0 6 9 19 17 28 17 10 0 23
5 30 12 7 7 12 8 12 4 0 -5 9 3 21 18 11 14 26 26 32 26 8 0 7 -3 -2 -9 -9 -6
-10 -11 -2 -15 17 -11 13 -26 -6 -19 -11 4 -14 3 -9 -5 4 -7 2 -12 -3 -12 -6
0 -11 -11 -11 -25 0 -14 2 -25 4 -25 2 0 13 -3 23 -7 15 -6 16 -4 6 9 -11 13
-7 15 32 13 44 -1 85 -25 85 -50 0 -17 58 -27 78 -14 14 8 12 9 -8 5 -24 -5
-24 -4 -6 9 24 18 57 20 53 3 -3 -17 33 -22 47 -7 8 9 8 10 -4 4 -13 -7 -13
-6 0 8 14 14 80 34 80 24 0 -3 -7 -13 -16 -21 -8 -9 -11 -16 -6 -16 6 0 8 -9
5 -20 -4 -14 0 -20 11 -20 9 0 16 -4 16 -10 0 -6 25 -10 58 -9 31 0 50 3 42 6
-8 3 -18 11 -22 17 -5 6 -8 7 -8 1 0 -14 -58 -11 -73 4 -9 10 -8 15 6 26 14
10 15 14 5 19 -10 5 -10 7 0 12 17 8 15 42 -4 61 -9 9 -12 22 -8 32 4 9 7 30
8 48 1 17 4 29 9 26 10 -6 9 9 -3 27 -7 11 -11 9 -19 -13 -16 -40 -42 -25 -39
23 1 27 -5 46 -23 68 -13 17 -28 31 -33 31 -5 1 -1 -8 10 -20 10 -12 18 -23
17 -25 -2 -2 -3 -10 -3 -16 0 -9 3 -9 9 1 6 9 10 -6 13 -45 l3 -59 -88 3 c-73
3 -92 0 -108 -14 -18 -16 -19 -16 -19 7 0 20 2 21 11 9 9 -12 10 -12 5 3 -3
10 -6 24 -6 30 0 8 -4 7 -9 -2 -7 -10 -9 -7 -8 12 2 20 10 29 31 37 40 14 49
13 42 -6 -5 -14 -4 -15 9 -4 8 7 22 10 30 6 17 -6 21 19 5 29 -5 3 -10 1 -10
-4 0 -6 -5 -11 -11 -11 -7 0 -5 10 5 25 14 21 14 25 2 25 -8 0 -18 -4 -21 -10
-11 -18 -24 -11 -40 21 -9 17 -19 28 -22 25 -3 -3 -14 -1 -24 5 -16 8 -19 6
-19 -13 0 -16 3 -19 9 -10 7 11 9 10 14 -3 4 -9 3 -14 -2 -11 -5 3 -16 -5 -25
-18 -10 -16 -12 -26 -5 -28 6 -2 10 -11 8 -19 -4 -14 -6 -14 -22 1 -16 16 -16
19 -3 32 13 14 13 18 -1 37 -14 20 -14 23 1 34 14 11 13 12 -8 13 -22 2 -24
-2 -23 -32z m115 -29 c-3 -3 -9 2 -12 12 -6 14 -5 15 5 6 7 -7 10 -15 7 -18z
m-70 -151 c2 -39 -21 -76 -32 -48 -5 13 17 84 26 84 2 0 4 -16 6 -36z m243
-31 c12 -16 12 -17 -1 -6 -8 6 -26 13 -40 16 l-25 4 26 2 c15 0 33 -7 40 -16z"/>
<path d="M1376 1057 c3 -10 9 -15 12 -12 3 3 0 11 -7 18 -10 9 -11 8 -5 -6z"/>
<path d="M543 1045 c0 -8 4 -12 9 -9 5 3 6 10 3 15 -9 13 -12 11 -12 -6z"/>
<path d="M410 1035 c-9 -11 -9 -15 -1 -15 7 0 9 -5 5 -11 -4 -7 1 -7 15 1 22
11 24 31 4 37 -5 2 -16 -3 -23 -12z"/>
<path d="M234 1021 c21 -23 26 -26 26 -11 0 5 -10 15 -22 21 -23 12 -23 12 -4
-10z"/>
<path d="M580 1025 l-23 -13 21 -6 c18 -6 62 7 62 18 0 11 -40 12 -60 1z"/>
<path d="M1220 1003 c0 -14 -8 -23 -22 -26 -20 -4 -20 -4 4 -6 32 -1 43 12 29
36 -9 16 -10 16 -11 -4z"/>
<path d="M625 1000 c-3 -5 1 -10 10 -10 9 0 13 5 10 10 -3 6 -8 10 -10 10 -2
0 -7 -4 -10 -10z"/>
<path d="M541 986 c-18 -10 -20 -14 -9 -19 17 -6 32 2 36 21 3 15 3 15 -27 -2z"/>
<path d="M1589 974 c-5 -15 -8 -29 -5 -31 2 -2 8 10 14 26 13 38 5 41 -9 5z"/>
<path d="M309 988 c-6 -12 -5 -46 2 -43 4 3 9 0 11 -7 3 -8 7 -6 11 5 4 10 2
16 -6 14 -7 -1 -11 6 -11 16 2 14 -3 23 -7 15z"/>
<path d="M1129 962 c18 -18 36 -32 39 -32 9 0 -32 42 -53 52 -11 6 -5 -3 14
-20z"/>
<path d="M220 956 c0 -9 5 -16 10 -16 6 0 10 4 10 9 0 6 -4 13 -10 16 -5 3
-10 -1 -10 -9z"/>
<path d="M396 958 c3 -5 10 -6 15 -3 13 9 11 12 -6 12 -8 0 -12 -4 -9 -9z"/>
<path d="M350 946 c0 -4 5 -16 11 -27 6 -11 12 -29 14 -39 3 -17 0 -18 -23 -9
l-27 9 25 -23 c14 -12 34 -40 44 -62 17 -35 20 -37 24 -17 4 23 26 30 38 10 4
-7 3 -8 -4 -4 -7 4 -12 2 -12 -3 0 -16 20 -13 26 4 4 8 11 12 18 8 8 -5 8 -3
-1 8 -6 8 -11 18 -11 24 0 5 -6 11 -14 13 -9 2 -8 0 2 -8 13 -10 12 -11 -4 -6
-10 4 -25 1 -32 -5 -10 -8 -14 -8 -14 0 0 6 6 11 13 11 8 0 7 4 -3 11 -13 9
-13 10 2 6 9 -3 19 1 22 9 5 12 1 14 -17 9 -21 -6 -21 -5 -2 7 11 7 25 13 30
14 6 1 22 5 38 9 18 5 27 3 27 -5 0 -6 -4 -9 -9 -6 -5 4 -19 2 -31 -2 -21 -8
-21 -9 -4 -23 10 -7 15 -9 11 -3 -4 8 5 14 27 18 25 5 33 11 31 24 -1 9 -9 15
-16 14 -8 -2 -32 -5 -54 -7 -22 -1 -47 -6 -56 -9 -9 -4 -21 0 -29 9 -7 9 -8
15 -2 15 6 0 13 -6 15 -12 3 -8 6 -6 6 5 1 10 -6 17 -17 17 -10 0 -23 5 -30
12 -7 7 -12 9 -12 4z"/>
<path d="M538 943 c6 -2 18 -2 25 0 6 3 1 5 -13 5 -14 0 -19 -2 -12 -5z"/>
<path d="M605 923 l-30 -14 30 6 c31 7 41 12 34 19 -2 2 -17 -3 -34 -11z"/>
<path d="M1360 925 c-11 -13 -10 -14 4 -9 9 3 16 10 16 15 0 13 -6 11 -20 -6z"/>
<path d="M1517 909 c4 -13 8 -18 11 -10 2 7 -1 18 -6 23 -8 8 -9 4 -5 -13z"/>
<path d="M1420 911 c0 -6 4 -13 10 -16 6 -3 7 1 4 9 -7 18 -14 21 -14 7z"/>
<path d="M2760 890 c0 -5 5 -10 11 -10 5 0 7 5 4 10 -3 6 -8 10 -11 10 -2 0
-4 -4 -4 -10z"/>
<path d="M160 826 c0 -2 7 -7 16 -10 8 -3 12 -2 9 4 -6 10 -25 14 -25 6z"/>
<path d="M539 821 c11 -7 9 -10 -8 -16 -13 -4 -21 -9 -18 -11 2 -2 19 1 37 8
30 10 32 12 14 19 -27 11 -42 11 -25 0z"/>
<path d="M1040 812 c-21 -17 -21 -18 -4 -32 17 -14 18 -14 5 3 -12 15 -11 17
2 17 9 0 19 5 22 11 12 19 -2 20 -25 1z"/>
<path d="M1660 791 c0 -34 11 -51 34 -50 16 1 17 2 4 6 -11 3 -18 14 -18 28 0
13 -4 27 -10 30 -5 3 -10 -3 -10 -14z"/>
<path d="M595 790 c3 -5 18 -10 32 -10 32 0 28 5 -10 14 -19 4 -26 3 -22 -4z"/>
<path d="M665 790 c4 -6 11 -8 16 -5 14 9 11 15 -7 15 -8 0 -12 -5 -9 -10z"/>
<path d="M1723 755 c2 -26 -1 -30 -24 -30 -14 0 -31 -5 -38 -12 -9 -10 -5 -11
19 -7 17 4 30 2 30 -4 0 -5 11 -12 25 -14 14 -3 25 -1 25 3 0 5 -5 9 -12 9 -9
0 -9 3 0 12 7 7 12 16 12 22 0 5 -3 6 -7 2 -4 -3 -13 6 -20 21 l-12 28 2 -30z"/>
<path d="M454 755 c-11 -8 -14 -15 -9 -15 6 0 3 -5 -5 -10 -12 -8 -10 -10 10
-11 l25 -1 -25 -8 c-14 -4 -20 -8 -13 -9 7 -1 10 -8 7 -16 -5 -12 5 -15 62
-14 l69 1 -60 13 c-46 9 -53 13 -30 15 17 1 35 2 42 1 6 -1 14 3 18 9 4 6 3
10 -2 9 -20 -3 -33 2 -33 14 0 7 -9 18 -19 24 -15 9 -23 9 -37 -2z"/>
<path d="M608 763 c7 -3 16 -2 19 1 4 3 -2 6 -13 5 -11 0 -14 -3 -6 -6z"/>
<path d="M1048 753 c7 -3 16 -2 19 1 4 3 -2 6 -13 5 -11 0 -14 -3 -6 -6z"/>
<path d="M520 740 c0 -5 5 -10 11 -10 5 0 7 5 4 10 -3 6 -8 10 -11 10 -2 0 -4
-4 -4 -10z"/>
<path d="M975 701 c-6 -37 -34 -74 -64 -83 -9 -2 2 -12 27 -25 44 -21 65 -19
33 4 -18 12 -18 14 16 48 20 20 52 45 72 56 31 17 32 19 9 15 -14 -3 -33 -9
-41 -12 -12 -4 -14 0 -10 18 4 18 3 20 -6 8 -7 -10 -11 -11 -11 -2 0 29 -19 9
-25 -27z"/>
<path d="M578 723 c7 -3 16 -2 19 1 4 3 -2 6 -13 5 -11 0 -14 -3 -6 -6z"/>
<path d="M580 696 c0 -10 28 -13 41 -5 10 6 7 9 -13 9 -16 0 -28 -2 -28 -4z"/>
<path d="M1267 689 c-10 -6 -25 -8 -33 -5 -9 3 -12 1 -9 -4 10 -16 65 -12 65
5 0 18 0 17 -23 4z"/>
<path d="M1297 676 c-4 -10 1 -20 13 -26 21 -11 57 -14 47 -3 -4 3 1 12 11 19
16 12 16 13 -3 14 -11 0 -30 3 -41 6 -14 4 -23 0 -27 -10z"/>
<path d="M1530 676 c0 -2 7 -7 16 -10 8 -3 12 -2 9 4 -6 10 -25 14 -25 6z"/>
<path d="M1771 664 c0 -11 3 -14 6 -6 3 7 2 16 -1 19 -3 4 -6 -2 -5 -13z"/>
<path d="M455 653 c11 -3 24 -9 30 -14 5 -5 45 -8 90 -7 l80 2 -70 6 -70 6 60
5 c47 4 39 5 -40 6 -55 0 -91 -1 -80 -4z"/>
<path d="M1468 633 c6 -2 18 -2 25 0 6 3 1 5 -13 5 -14 0 -19 -2 -12 -5z"/>
<path d="M0 620 c0 -5 10 -10 23 -10 18 0 19 2 7 10 -19 13 -30 13 -30 0z"/>
<path d="M448 623 c7 -3 16 -2 19 1 4 3 -2 6 -13 5 -11 0 -14 -3 -6 -6z"/>
<path d="M530 610 c8 -5 22 -9 30 -9 10 0 8 3 -5 9 -27 12 -43 12 -25 0z"/>
<path d="M0 545 c0 -52 1 -55 19 -45 11 5 27 7 37 3 13 -5 15 -3 9 7 -5 9 -4
11 3 6 16 -10 15 2 -2 19 -7 8 -17 11 -21 7 -5 -4 -5 -2 -1 5 5 9 14 9 31 3
15 -6 27 -6 30 0 3 5 -12 12 -34 16 -22 3 -42 13 -45 20 -12 32 -26 10 -26
-41z"/>
<path d="M463 593 c9 -2 23 -2 30 0 6 3 -1 5 -18 5 -16 0 -22 -2 -12 -5z"/>
<path d="M1270 550 l-25 -8 28 -1 c15 -1 27 4 27 9 0 6 -1 10 -2 9 -2 -1 -14
-5 -28 -9z"/>
<path d="M1742 553 c-6 -2 -10 -9 -6 -14 3 -5 0 -9 -6 -9 -6 0 -8 -5 -5 -11 5
-7 14 -3 26 10 27 29 24 38 -9 24z"/>
<path d="M2660 546 c0 -10 8 -16 22 -16 12 0 19 1 17 3 -2 1 -12 9 -21 16 -15
12 -18 11 -18 -3z"/>
<path d="M2820 540 c-12 -8 -11 -10 8 -10 12 0 22 5 22 10 0 13 -11 13 -30 0z"/>
<path d="M185 530 c3 -5 8 -10 11 -10 2 0 4 5 4 10 0 6 -5 10 -11 10 -5 0 -7
-4 -4 -10z"/>
<path d="M98 519 c-10 -5 -15 -16 -11 -24 4 -11 0 -14 -13 -9 -14 5 -16 4 -8
-5 8 -9 20 -8 49 5 25 10 41 12 43 6 2 -6 10 -8 19 -5 11 4 14 2 9 -5 -4 -7
-2 -12 3 -12 15 0 14 12 -1 33 -16 20 -67 29 -90 16z"/>
<path d="M23 486 c-13 -6 -23 -16 -23 -22 0 -12 37 -28 55 -24 6 2 26 7 45 11
29 7 27 8 -15 4 -30 -3 -45 -1 -36 4 9 6 10 11 2 15 -6 4 -9 12 -6 17 7 10 8
10 -22 -5z"/>
<path d="M2858 493 c7 -3 16 -2 19 1 4 3 -2 6 -13 5 -11 0 -14 -3 -6 -6z"/>
<path d="M5 400 c-3 -5 -1 -10 4 -10 6 0 11 5 11 10 0 6 -2 10 -4 10 -3 0 -8
-4 -11 -10z"/>
<path d="M1148 383 c6 -2 18 -2 25 0 6 3 1 5 -13 5 -14 0 -19 -2 -12 -5z"/>
<path d="M1711 339 c-1 -32 24 -59 26 -28 1 11 -2 17 -7 14 -5 -3 -11 5 -13
17 -4 21 -4 20 -6 -3z"/>
<path d="M2830 310 l-25 -8 25 -1 c14 0 32 4 40 9 13 9 13 10 0 9 -8 -1 -26
-5 -40 -9z"/>
<path d="M2745 300 c11 -5 29 -9 40 -9 l20 0 -20 9 c-11 5 -29 9 -40 9 l-20 0
20 -9z"/>
<path d="M1198 283 c6 -2 18 -2 25 0 6 3 1 5 -13 5 -14 0 -19 -2 -12 -5z"/>
<path d="M1338 263 c7 -3 16 -2 19 1 4 3 -2 6 -13 5 -11 0 -14 -3 -6 -6z"/>
<path d="M1405 250 c-3 -5 1 -10 10 -10 9 0 13 5 10 10 -3 6 -8 10 -10 10 -2
0 -7 -4 -10 -10z"/>
<path d="M1448 253 c6 -2 18 -2 25 0 6 3 1 5 -13 5 -14 0 -19 -2 -12 -5z"/>
<path d="M1040 243 c0 -5 -20 -7 -45 -6 -30 2 -44 -1 -40 -8 4 -5 17 -9 28 -7
12 1 28 -2 36 -6 9 -6 12 -5 8 1 -4 6 4 9 18 7 14 -1 28 3 32 9 3 7 3 9 -2 5
-4 -4 -14 -3 -22 3 -7 6 -13 7 -13 2z"/>
<path d="M1408 213 c7 -3 16 -2 19 1 4 3 -2 6 -13 5 -11 0 -14 -3 -6 -6z"/>
<path d="M1448 213 c7 -3 16 -2 19 1 4 3 -2 6 -13 5 -11 0 -14 -3 -6 -6z"/>
<path d="M910 203 c20 -10 10 -24 -12 -18 -17 5 -20 4 -13 -4 6 -6 26 -13 45
-16 21 -3 27 -2 15 3 -11 4 -20 13 -20 21 0 8 -6 15 -13 17 -7 1 -8 0 -2 -3z"/>
<path d="M980 199 c0 -10 60 -17 66 -7 3 4 15 3 27 -3 18 -10 20 -9 9 2 -12
13 -102 20 -102 8z"/>
<path d="M1128 183 c7 -3 16 -2 19 1 4 3 -2 6 -13 5 -11 0 -14 -3 -6 -6z"/>
<path d="M987 169 c7 -7 15 -10 18 -7 3 3 -2 9 -12 12 -14 6 -15 5 -6 -5z"/>
<path d="M1040 160 c-21 -7 -21 -8 -5 -9 11 0 27 4 35 9 18 11 5 11 -30 0z"/>
<path d="M1758 143 c7 -3 16 -2 19 1 4 3 -2 6 -13 5 -11 0 -14 -3 -6 -6z"/>
<path d="M2842 91 c-11 -7 -10 -10 3 -15 23 -9 25 -8 25 9 0 17 -9 19 -28 6z"/>
<path d="M950 70 c0 -6 7 -10 15 -10 8 0 15 2 15 4 0 2 -7 6 -15 10 -8 3 -15
1 -15 -4z"/>
<path d="M2635 20 c-3 -5 1 -10 10 -10 9 0 13 5 10 10 -3 6 -8 10 -10 10 -2 0
-7 -4 -10 -10z"/>
<path d="M1015 10 c-18 -8 -17 -9 8 -9 16 -1 26 3 22 9 -3 6 -7 10 -8 9 -1 0
-11 -4 -22 -9z"/>
<path d="M2715 10 c-4 -6 9 -10 31 -10 42 0 42 4 2 14 -15 3 -30 2 -33 -4z"/>
</g>
</svg>
