<?xml version="1.0" standalone="no"?>
<!DOCTYPE svg PUBLIC "-//W3C//DTD SVG 20010904//EN"
 "http://www.w3.org/TR/2001/REC-SVG-20010904/DTD/svg10.dtd">
<svg version="1.0" xmlns="http://www.w3.org/2000/svg"
 width="36.000000pt" height="36.000000pt" viewBox="0 0 36.000000 36.000000"
 preserveAspectRatio="xMidYMid meet">

<g transform="translate(0.000000,36.000000) scale(0.100000,-0.100000)"
fill="#000000" stroke="none">
<path d="M162 259 c-57 -39 -101 -76 -99 -82 2 -6 49 -42 105 -81 70 -48 105
-67 112 -60 14 14 9 286 -5 291 -6 2 -57 -29 -113 -68z m88 -80 l0 -100 -70
48 c-38 26 -68 51 -67 55 2 6 125 95 135 97 1 1 2 -44 2 -100z"/>
</g>
</svg>
